<svg width="32" height="21" viewBox="0 0 32 21" fill="none" xmlns="http://www.w3.org/2000/svg">
<g id="Abstract Design" opacity="0.9">
<g id="Group">
<path id="Vector" d="M30.3018 0.927246C30.4198 0.939892 30.5336 0.95254 30.6516 0.969401C30.5378 0.95254 30.4198 0.939892 30.3018 0.927246Z" fill="#262626"/>
<path id="Vector_2" d="M37.5897 3.27959L36.9532 2.93816C36.9363 2.92973 36.9153 2.91708 36.8984 2.90865C36.8309 2.87493 36.7635 2.8412 36.6961 2.80748C36.7382 2.82855 36.7846 2.84964 36.8309 2.87072C36.7298 2.81592 36.6286 2.76533 36.5274 2.71054L36.0806 2.5082C36.1186 2.52506 36.1607 2.54614 36.1987 2.563C35.6507 2.31009 35.0943 2.08247 34.521 1.88014C32.072 1.30266 29.5471 1.06238 25.2012 0.990723C33.2564 1.38695 36.0216 2.53771 36.949 2.93394C37.1639 3.04354 37.3789 3.15735 37.5897 3.27959Z" fill="#262626"/>
<path id="Vector_3" d="M31.1783 0.733615C30.8622 0.657741 30.5461 0.581867 30.2763 0.522854L30.1077 0.489126C29.1803 0.341593 27.3383 0.632452 25.2012 0.999176C25.3866 0.973884 25.5679 0.952807 25.7534 0.931731C29.2899 0.52707 30.3142 0.594517 31.1783 0.737835V0.733615Z" fill="#262626"/>
<path id="Vector_4" d="M28.5691 0.227695C28.2909 0.189758 27.9453 0.151821 27.6755 0.122314C27.6755 0.122314 27.6671 0.122314 27.6629 0.122314C27.6123 0.13496 27.6038 0.139178 25.2012 0.994867C27.9916 0.252989 28.2656 0.24877 28.6408 0.24034C28.6197 0.24034 28.5944 0.236129 28.5691 0.231914V0.227695Z" fill="#262626"/>
<path id="Vector_5" d="M26.4654 0.0674321C26.4275 0.0547865 26.3811 0.0379359 26.3432 0.0252903C26.3432 0.0252903 26.339 0.0252903 26.3348 0.0252903C26.0734 0.0126446 25.9132 0.0084258 25.8964 0.0084258C25.7488 0.0084258 25.5634 0 25.4074 0C25.7025 0.0126456 25.7109 0.0210725 25.8458 0.193896C25.7896 0.396226 25.576 0.663187 25.2051 0.994784C26.3896 0.337211 26.4275 0.210749 26.4696 0.0674321H26.4654Z" fill="#262626"/>
<path id="Vector_6" d="M24.4967 0.193752C25.07 0.408728 25.0995 0.535182 25.2007 0.99464C25.618 0.0546478 24.7496 0.0377921 23.9825 0.0251465C23.7127 0.0377921 23.3544 0.0630767 23.0889 0.0841528L22.8359 0.105237C23.228 0.0799453 24.0457 0.0251439 24.4967 0.193752Z" fill="#262626"/>
<path id="Vector_7" d="M24.6319 50.4057C24.7289 50.4057 24.8216 50.4099 24.9186 50.4099H24.9607C24.9607 50.4099 24.9945 50.4099 25.0071 50.4099C25.1167 50.4099 25.2221 50.4099 25.3317 50.4099C25.4244 50.4099 25.5171 50.4099 25.5972 50.4099C25.6014 50.4099 25.6057 50.4099 25.6099 50.4099C23.6962 50.3762 -3.68586 39.9983 0.740115 18.9138C0.740115 18.9138 0.740115 18.9138 0.740115 18.918C0.588367 19.5124 0.440835 20.3133 0.314378 20.9118C0.192137 21.679 0.090972 22.7117 0.00666775 23.4831C-0.44436 42.3968 22.1281 50.1654 24.6319 50.4057Z" fill="#262626"/>
<path id="Vector_8" d="M20.5056 0.438447C20.455 0.446877 20.4002 0.459526 20.3496 0.467957C23.4309 -0.0589451 24.7166 0.699793 25.2055 0.994858C24.333 0.0337896 22.8155 0.0506473 20.5098 0.438447H20.5056Z" fill="#262626"/>
<path id="Vector_9" d="M3.20241 12.8185C-7.92154 34.2655 23.2373 49.4065 26.9636 50.3465C26.9889 50.3465 27.0141 50.3465 27.0394 50.3423L27.2038 50.3297C27.2291 50.3297 27.2544 50.3255 27.2839 50.3212C27.4736 50.3044 27.7012 50.2791 27.8951 50.2622C27.9204 50.2622 27.9457 50.258 27.9668 50.2538C23.5535 46.8985 18.1833 45.0691 13.9301 41.4609C11.8478 39.6947 6.97081 35.5596 4.12132 30.0292C-1.58186 18.9643 3.49326 11.908 5.98445 8.87305C5.89593 8.97421 5.81163 9.07537 5.72732 9.17232L5.3058 9.67393C4.64823 10.5802 3.81783 11.8237 3.22348 12.7805C3.21505 12.7932 3.21084 12.8058 3.20241 12.8185Z" fill="#262626"/>
<path id="Vector_10" d="M19.3676 0.67849C19.3676 0.67849 19.3971 0.67006 19.4139 0.665845C19.376 0.674276 19.3296 0.682705 19.2959 0.691135C19.0177 0.754364 18.6552 0.851312 18.3812 0.927186C17.8164 1.08315 17.0703 1.31499 16.5223 1.52153C16.1851 1.64799 15.7383 1.8166 15.4095 1.9557C15.0132 2.12431 14.4948 2.36879 14.1028 2.55005C13.7023 2.73552 13.1838 3.0095 12.8045 3.23291C12.3577 3.49425 11.8055 3.83568 11.3165 4.15182C6.27932 7.61673 2.30437 13.1766 2.85235 19.4446C4.15063 34.2316 20.8977 44.3734 27.1994 48.1924C28.6551 49.0748 29.4251 49.6874 29.5094 50.0302C29.5094 50.0302 29.5389 50.026 29.5515 50.0218C29.8972 49.9586 30.3313 49.8658 30.677 49.7942C30.6896 49.7942 30.7023 49.7899 30.7149 49.7857C30.8371 49.7436 30.9257 49.5665 31.01 49.4654C30.7233 48.9132 30.1627 48.5169 27.132 46.5316C19.3338 41.4227 11.4851 35.5467 6.90317 27.2217C-3.43675 8.42605 16.615 -1.29845 25.2056 0.990412C23.5406 0.345484 21.5131 0.273826 19.3718 0.674271L19.3676 0.67849Z" fill="#262626"/>
<path id="Vector_11" d="M28.0844 44.4325C32.8308 47.7878 33.9604 48.5845 32.4598 49.3264C32.4767 49.3222 32.4935 49.318 32.5062 49.3137C32.738 49.2421 32.9994 49.1536 33.2565 49.0693C33.4335 49.0102 33.6064 48.947 33.7792 48.8838C35.9037 47.8974 34.0532 46.5317 29.6272 43.2733C24.7333 39.6693 18.6381 35.1843 13.4703 28.6255C-1.78878 9.26078 14.4988 -0.324616 25.197 0.994746C13.0403 -1.63976 -13.1193 15.3223 28.0802 44.4325H28.0844Z" fill="#262626"/>
<path id="Vector_12" d="M30.8746 40.664C36.4092 44.9087 38.4831 46.4978 35.7347 48.0828C35.7558 48.0743 35.7769 48.0617 35.798 48.0533C36.2574 47.8341 36.8307 47.5306 37.2733 47.3072C39.4146 46.0552 38.5589 44.601 37.3154 43.2184C32.1097 37.4309 25.1967 33.5951 19.8645 27.9509C2.70433 9.78333 14.2161 0.745915 25.2009 0.998827C14.0053 -0.0212543 -5.98323 12.4052 30.8746 40.6682V40.664Z" fill="#262626"/>
<path id="Vector_13" d="M35.153 37.1529C40.4262 41.3765 42.3062 43.6485 39.4904 45.9332C39.971 45.5959 40.5822 45.1154 41.0627 44.7487C41.303 44.5506 41.5559 44.3356 41.7962 44.1206C43.9838 42.1184 42.7572 41.0351 28.0377 28.0691C6.70029 9.27766 16.3152 2.64291 23.2703 1.2561C16.9643 2.43215 -0.621539 8.48941 35.153 37.1529Z" fill="#262626"/>
<path id="Vector_14" d="M24.919 1.01587C24.4005 1.06224 23.8441 1.14233 23.2666 1.25614C24.0085 1.11704 24.5902 1.04538 24.919 1.01587Z" fill="#262626"/>
<path id="Vector_15" d="M25.2004 0.994873C25.2004 0.994873 25.0824 1.0033 24.918 1.01594C25.0107 1.00751 25.1077 0.999088 25.2004 0.994873Z" fill="#262626"/>
<path id="Vector_16" d="M34.171 28.8827C42.9176 35.9221 46.2012 39.1425 43.3559 42.6411C43.377 42.62 43.3939 42.6032 43.4107 42.5821C43.8576 42.1016 44.3971 41.4651 44.8186 40.9803C44.8271 40.9677 44.8355 40.9592 44.8439 40.9466C47.3351 37.684 44.9535 34.2486 34.6853 26.2692C7.89336 5.4545 22.086 1.56808 25.2052 0.999023C22.9332 1.28566 3.88469 4.51029 34.1752 28.8827H34.171Z" fill="#262626"/>
<path id="Vector_17" d="M35.9799 23.2511C45.8772 30.6446 48.6002 34.4256 46.7498 38.2066C46.8256 38.0802 46.8973 37.958 46.969 37.8357L47.0364 37.7177C47.087 37.6292 47.1334 37.5491 47.1797 37.469L47.7446 36.3815C47.812 36.2424 47.8794 36.1033 47.9469 35.9684C50.1557 30.9017 41.7842 24.8065 36.2286 20.7641C18.1242 7.59155 20.2403 2.74827 25.2016 1.00317C20.9653 2.10756 13.5297 6.49139 35.9799 23.2595V23.2511Z" fill="#262626"/>
<path id="Vector_18" d="M36.4601 17.5101C45.1013 23.5968 50.2776 27.6687 49.2027 32.7481C49.2533 32.5752 49.3081 32.4024 49.3544 32.2338C49.5272 31.6015 49.7001 30.8892 49.8392 30.3201C50.581 25.2576 45.3542 21.3965 36.7678 15.5247C31.0941 11.6425 20.535 4.41763 25.2012 0.994873C17.8836 4.42184 31.8655 14.2728 36.4601 17.5101Z" fill="#262626"/>
<path id="Vector_19" d="M37.0971 13.0335C46.8342 19.3521 50.1432 22.2184 50.3202 26.5685C50.3244 26.4842 50.3329 26.3957 50.3371 26.3114L50.3666 25.2491L50.3413 24.2206C50.3371 24.1026 50.3329 23.9888 50.3244 23.8708C49.9493 19.3057 43.8667 15.5415 36.174 10.7867C30.7616 7.44408 24.6285 3.65039 25.206 0.999023C22.6726 3.6799 31.356 9.31142 37.1013 13.0377L37.0971 13.0335Z" fill="#262626"/>
<path id="Vector_20" d="M36.4642 8.99949C45.4342 14.0915 48.8106 16.5658 49.8855 20.2963C49.7506 19.6513 49.5314 18.8336 49.3501 18.1423C49.308 17.999 49.2658 17.8599 49.2237 17.7166C47.7652 13.9229 42.8798 11.1998 34.3946 6.74014C28.3963 3.58295 26.4194 2.34789 25.2012 0.999023C25.9009 3.00547 30.3311 5.52194 36.4642 9.00371V8.99949Z" fill="#262626"/>
<path id="Vector_21" d="M47.9419 14.4246C47.904 14.3487 47.8703 14.2728 47.8323 14.1969L47.3223 13.1895L46.9809 12.5867C46.9176 12.4771 46.8544 12.3675 46.787 12.2579C45.632 10.4622 43.5413 9.12602 40.5485 7.55796C35.604 4.96982 30.3013 3.22894 25.2051 0.994873C26.7942 2.00652 29.7154 3.34697 33.4121 5.0457C43.2209 9.55176 46.2432 11.4992 47.9462 14.4246H47.9419Z" fill="#262626"/>
<path id="Vector_22" d="M44.882 9.52225C44.8356 9.46324 44.7935 9.41266 44.7429 9.34943C44.7134 9.31149 44.6839 9.27777 44.6502 9.23983C44.6122 9.19346 44.5743 9.1471 44.5364 9.10073C44.1654 8.67078 43.7481 8.20288 43.4151 7.82773C41.2232 5.58102 35.0943 3.28373 25.2012 0.994873C40.2073 5.49251 43.1116 7.60012 44.882 9.52225Z" fill="#262626"/>
<path id="Vector_23" d="M40.768 5.42927C40.4012 5.14685 40.0008 4.85179 39.6551 4.59888C39.5835 4.54829 39.5118 4.50194 39.4402 4.45135C37.0586 2.95074 32.2743 1.78733 25.2012 0.994873C29.6019 1.64823 37.4717 3.12355 41.0799 5.68219C40.9745 5.59367 40.8691 5.50936 40.768 5.42927Z" fill="#262626"/>
<path id="Vector_24" d="M30.7821 0.990646C31.368 1.07074 31.9497 1.17612 32.5146 1.30679C33.522 1.4754 33.6485 1.51334 34.4156 1.76204C34.3946 1.75361 34.3693 1.74096 34.3482 1.73675C33.9646 1.585 33.4419 1.40795 33.0499 1.26885H33.0415C32.1183 0.969572 31.035 0.931642 29.7789 0.881059C29.8379 0.885275 29.8927 0.893696 29.9517 0.897911C29.311 0.838898 28.6576 0.805176 27.9959 0.805176C26.98 0.855758 26.8451 0.864198 25.2012 0.999085C27.8146 0.889489 28.9949 0.910561 30.7821 0.994866V0.990646ZM30.2974 0.93164C30.4154 0.944286 30.5292 0.956934 30.6472 0.973795C30.5334 0.956934 30.4154 0.944286 30.2974 0.93164Z" fill="#262626"/>
</g>
</g>
</svg>
