<svg width="50" height="50" viewBox="0 0 50 50" fill="none" xmlns="http://www.w3.org/2000/svg">
<g id="Abstract Design" clip-path="url(#clip0_164_33264)">
<g id="Group">
<path id="Vector" d="M33.335 8.33238L41.6673 0H49.9997V8.33238L41.6673 16.6648H33.335V8.33238Z" fill="#FFDECC"/>
<path id="Vector_2" d="M49.9994 0H41.667V8.33238H49.9994V0Z" fill="#FF8D4D"/>
</g>
<g id="Group_2">
<path id="Vector_3" d="M33.335 25.0028L41.6673 16.6647H49.9997V25.0028L41.6673 33.3352H33.335V25.0028Z" fill="#FFDECC"/>
<path id="Vector_4" d="M49.9994 16.6647H41.667V24.9971H49.9994V16.6647Z" fill="#FF8D4D"/>
</g>
<g id="Group_3">
<path id="Vector_5" d="M16.665 8.33238L25.0031 0H33.3355V8.33238L25.0031 16.6648H16.665V8.33238Z" fill="#FFDECC"/>
<path id="Vector_6" d="M33.3353 0H25.0029V8.33238H33.3353V0Z" fill="#FF8D4D"/>
</g>
<g id="Group_4">
<path id="Vector_7" d="M16.665 25.0028L25.0031 16.6647H33.3355V25.0028L25.0031 33.3352H16.665V25.0028Z" fill="#FFDECC"/>
<path id="Vector_8" d="M33.3353 16.6647H25.0029V24.9971H33.3353V16.6647Z" fill="#FF8D4D"/>
</g>
<g id="Group_5">
<path id="Vector_9" d="M0 8.33238L8.33238 0H16.6648V8.33238L8.33238 16.6648H0V8.33238Z" fill="#FFDECC"/>
<path id="Vector_10" d="M16.6644 0H8.33203V8.33238H16.6644V0Z" fill="#FF8D4D"/>
</g>
<g id="Group_6">
<path id="Vector_11" d="M0 25.0028L8.33238 16.6647H16.6648V25.0028L8.33238 33.3352H0V25.0028Z" fill="#FFDECC"/>
<path id="Vector_12" d="M16.6644 16.6647H8.33203V24.9971H16.6644V16.6647Z" fill="#FF8D4D"/>
</g>
<g id="Group_7">
<path id="Vector_13" d="M33.335 41.6676L41.6673 33.3353H49.9997V41.6676L41.6673 50H33.335V41.6676Z" fill="#FFDECC"/>
<path id="Vector_14" d="M49.9994 33.3353H41.667V41.6676H49.9994V33.3353Z" fill="#FF8D4D"/>
</g>
<g id="Group_8">
<path id="Vector_15" d="M16.665 41.6676L25.0031 33.3353H33.3355V41.6676L25.0031 50H16.665V41.6676Z" fill="#FFDECC"/>
<path id="Vector_16" d="M33.3353 33.3353H25.0029V41.6676H33.3353V33.3353Z" fill="#FF8D4D"/>
</g>
<g id="Group_9">
<path id="Vector_17" d="M0 41.6676L8.33238 33.3353H16.6648V41.6676L8.33238 50H0V41.6676Z" fill="#FFDECC"/>
<path id="Vector_18" d="M16.6644 33.3353H8.33203V41.6676H16.6644V33.3353Z" fill="#FF8D4D"/>
</g>
</g>
<defs>
<clipPath id="clip0_164_33264">
<rect width="50" height="50" fill="white"/>
</clipPath>
</defs>
</svg>
