<svg xmlns="http://www.w3.org/2000/svg" width="24" height="24" viewBox="0 0 24 24" fill="none">
  <path fill-rule="evenodd" clip-rule="evenodd" d="M6 12C6 11.5029 6.40294 11.1 6.9 11.1H14.8655L12.2762 8.74875C11.9179 8.40423 11.9067 7.83449 12.2513 7.4762C12.5958 7.11791 13.1655 7.10673 13.5238 7.45125L17.7238 11.3512C17.9003 11.5209 18 11.7552 18 12C18 12.2448 17.9003 12.4791 17.7238 12.6487L13.5238 16.5487C13.1655 16.8933 12.5958 16.8821 12.2513 16.5238C11.9067 16.1655 11.9179 15.5958 12.2762 15.2512L14.8655 12.9H6.9C6.40294 12.9 6 12.4971 6 12Z" fill="#333333"/>
</svg>