<svg xmlns="http://www.w3.org/2000/svg" width="20" height="20" viewBox="0 0 20 20" fill="none">
  <path d="M17.6676 2.91162H2.33242C1.04406 2.91162 0 3.95568 0 5.24369V14.7565C0 16.0445 1.04406 17.0886 2.33242 17.0886H17.6676C18.9556 17.0886 20 16.0445 20 14.7565V5.24369C20 3.95568 18.9556 2.91162 17.6676 2.91162ZM18.8863 15.3848L18.4423 15.9106L12.2249 10.8363L11.262 11.7525C10.5484 12.4078 9.45164 12.4078 8.73801 11.7525L7.77512 10.8363L1.55766 15.9106L1.11367 15.3848L6.95117 10.0521L1.07543 4.5301L1.42281 4.06982L10 10.5688L18.5771 4.06982L18.9243 4.5301L13.0489 10.0521L18.8863 15.3848Z" fill="#262626"/>
</svg>