<svg xmlns="http://www.w3.org/2000/svg" width="67" height="50" viewBox="0 0 67 50" fill="none">
  <g clip-path="url(#clip0_164_32856)">
    <path d="M60.6479 17.4722C58.7242 16.8249 56.855 15.9868 54.8995 15.578C49.9483 14.5446 45.2175 15.3736 41.0453 18.2398C39.4668 19.3254 38.304 21.0334 37.0026 22.5028C35.8806 23.7701 34.8314 25.1033 33.6572 26.5205C32.433 25.0715 31.3224 23.652 30.0982 22.3348C28.6129 20.7381 27.2706 18.8326 25.4514 17.7606C19.862 14.4606 13.9797 14.4242 8.07687 17.102C7.67488 17.2837 7.28196 17.4858 6.60742 17.8151C7.34101 16.2843 7.94969 15.0102 8.56291 13.7361C9.05348 12.714 9.65761 11.7329 10.0165 10.6677C11.0612 7.58118 13.6095 6.30023 16.4076 5.73698C20.0165 5.01247 23.5958 5.4281 26.646 7.79921C27.1525 8.19212 27.5409 8.89846 27.7112 9.53212C28.0632 10.8335 28.2313 12.1871 28.5288 13.8019C29.3374 13.5907 30.105 13.5044 30.7682 13.1933C32.7896 12.2484 34.7541 12.1826 36.7414 13.2682C37.1184 13.4749 37.5727 13.5657 38.0019 13.643C38.7401 13.777 39.083 13.484 39.1375 12.68C39.2079 11.6284 39.3442 10.5632 39.619 9.55029C39.7848 8.93707 40.1482 8.27616 40.6206 7.86053C43.5254 5.29864 47.0049 5.24186 50.5774 5.75061C51.2815 5.85054 51.9742 6.07539 52.6533 6.3025C54.6179 6.96114 56.1691 8.02406 57.0321 10.0681C57.9542 12.2553 59.1352 14.3311 60.1982 16.4592C60.3753 16.8135 60.5207 17.1815 60.6501 17.4744L60.6479 17.4722Z" fill="#262626"/>
    <path d="M32.108 34.1835C32.0694 43.0139 25.0219 50.0204 16.2007 49.9977C7.40667 49.975 0.297879 42.873 0.304692 34.1199C0.311506 25.3509 7.60426 18.1036 16.3188 18.2012C25.1355 18.2989 32.1443 25.3963 32.108 34.1835ZM16.2234 44.5378C22.0967 44.5378 26.8411 39.8024 26.8321 33.9473C26.823 28.0604 22.1057 23.3659 16.2052 23.3704C10.416 23.375 5.69647 28.1013 5.66467 33.9246C5.63288 39.816 10.3297 44.5356 16.2211 44.5378H16.2234Z" fill="#FF9E66"/>
    <path d="M35.1992 34.1131C35.2038 25.3259 42.2921 18.2149 51.0589 18.2013C59.7825 18.1876 66.9526 25.3282 67.0003 34.0791C67.0502 42.8594 59.8642 50.025 51.0361 50.0023C42.2081 49.9773 35.1947 42.9412 35.1992 34.1154V34.1131ZM61.6403 33.9723C61.6403 28.04 56.9776 23.3659 51.0657 23.3727C45.2333 23.3773 40.457 28.1763 40.4729 34.0155C40.4888 39.8138 45.2197 44.531 51.0339 44.5401C56.9412 44.5515 61.638 39.8683 61.638 33.9723H61.6403Z" fill="#FF9E66"/>
    <path d="M52.3059 2.93663C48.3927 1.95094 44.7406 2.19396 41.1885 3.85873C41.5246 2.21894 43.3643 0.622303 45.2902 0.231661C48.0838 -0.336134 50.7456 0.63593 52.3059 2.93891V2.93663Z" fill="#262626"/>
    <path d="M15.1426 2.58914C16.4758 0.881217 18.2791 -0.11583 20.5389 0.0113558C23.0486 0.152169 24.9609 1.37406 26.1782 3.60209C24.3522 3.2069 22.5693 2.64365 20.7501 2.48013C18.9014 2.31206 17.0186 2.53691 15.1426 2.58914Z" fill="#262626"/>
  </g>
  <defs>
    <clipPath id="clip0_164_32856">
      <rect width="66.6954" height="50" fill="white" transform="translate(0.304688)"/>
    </clipPath>
  </defs>
</svg>