<svg width="33" height="22" viewBox="0 0 33 22" fill="none" xmlns="http://www.w3.org/2000/svg">
<g id="Abstract Design" opacity="0.9">
<g id="Group">
<path id="Vector" d="M10.769 20.6362C10.8072 20.6498 10.8481 20.6635 10.8889 20.6798C11.1778 20.7779 11.5375 20.8896 11.8128 20.9741C12.0989 21.0559 12.4832 21.1458 12.772 21.2139C9.01404 20.2956 5.80655 18.2381 3.24219 15.0933L3.96435 15.9844C4.05428 16.0852 4.13331 16.1751 4.20961 16.2569C4.47668 16.5349 4.79279 16.8564 5.11436 17.1671C5.3133 17.3497 5.56129 17.5677 5.90465 17.8729C6.08179 18.0146 6.2889 18.1727 6.50146 18.3307C8.32458 19.6742 9.56997 20.1702 10.7718 20.6389L10.769 20.6362Z" fill="#262626"/>
<path id="Vector_2" d="M1.09689 11.2618C4.08364 18.3145 11.5642 21.0151 14.2076 21.4593C14.2212 21.4593 14.2321 21.462 14.2457 21.4648C14.3847 21.4811 14.5591 21.5002 14.6954 21.5138L14.9733 21.5384C14.9733 21.5384 14.9842 21.5384 14.9869 21.5384C13.4282 21.3939 2.70745 18.23 0.292969 8.49854C0.32022 8.64297 0.344747 8.78467 0.371998 8.91548C0.551858 9.59404 0.827097 10.4824 1.05873 11.1583C1.07236 11.1937 1.08599 11.2264 1.09689 11.2618Z" fill="#262626"/>
<path id="Vector_3" d="M15.9246 21.5873C15.9873 21.5873 16.0472 21.5901 16.1099 21.5901H16.1372C16.1372 21.5901 16.159 21.5901 16.1671 21.5901C16.238 21.5901 16.3061 21.5901 16.377 21.5901C16.4369 21.5901 16.4969 21.5901 16.5487 21.5901C16.5514 21.5901 16.5541 21.5901 16.5568 21.5901C15.3196 21.5683 -2.38292 14.859 0.478486 1.22778C0.478486 1.22778 0.478486 1.22778 0.478486 1.2305C0.380381 1.61475 0.285001 2.13253 0.203246 2.5195C0.124217 3.01548 0.0588136 3.68314 0.00431072 4.18184C-0.28728 16.4096 14.3059 21.432 15.9246 21.5873Z" fill="#262626"/>
<path id="Vector_4" d="M2.07053 -2.71294C-5.12112 11.1526 15.0231 20.9413 17.4322 21.549C17.4485 21.549 17.4649 21.549 17.4812 21.5463L17.5875 21.5381C17.6039 21.5381 17.6202 21.5354 17.6393 21.5327C17.7619 21.5218 17.9091 21.5054 18.0344 21.4945C18.0508 21.4945 18.0671 21.4918 18.0808 21.4891C15.2275 19.3199 11.7557 18.1371 9.00602 15.8044C7.6598 14.6626 4.50681 11.9892 2.66461 8.41383C-1.02251 1.26032 2.25856 -3.30157 3.86912 -5.26367C3.8119 -5.19827 3.75739 -5.13287 3.70289 -5.07019L3.43038 -4.7459C3.00525 -4.15999 2.4684 -3.35607 2.08416 -2.73747C2.07871 -2.72929 2.07598 -2.72112 2.07053 -2.71294Z" fill="#262626"/>
<path id="Vector_5" d="M12.5213 -10.5614C12.5213 -10.5614 12.5404 -10.5668 12.5513 -10.5696C12.5268 -10.5641 12.4968 -10.5587 12.475 -10.5532C12.2952 -10.5123 12.0608 -10.4496 11.8837 -10.4006C11.5185 -10.2998 11.0361 -10.1499 10.6819 -10.0163C10.4639 -9.93459 10.175 -9.82559 9.96243 -9.73566C9.70627 -9.62665 9.37108 -9.46859 9.11764 -9.35141C8.85875 -9.2315 8.52356 -9.05437 8.2783 -8.90994C7.98943 -8.74098 7.63244 -8.52025 7.31632 -8.31586C4.05977 -6.07579 1.48996 -2.48133 1.84423 1.57096C2.68357 11.1308 13.5106 17.6875 17.5847 20.1564C18.5257 20.7269 19.0235 21.123 19.078 21.3446C19.078 21.3446 19.0971 21.3419 19.1053 21.3392C19.3288 21.2983 19.6094 21.2383 19.8329 21.192C19.8411 21.192 19.8493 21.1893 19.8574 21.1865C19.9365 21.1593 19.9937 21.0448 20.0482 20.9794C19.8629 20.6224 19.5004 20.3663 17.5411 19.0827C12.4995 15.7799 7.42532 11.981 4.46309 6.59885C-2.22168 -5.55256 10.7418 -11.8395 16.2957 -10.3597C15.2192 -10.7767 13.9084 -10.823 12.5241 -10.5641L12.5213 -10.5614Z" fill="#262626"/>
<path id="Vector_6" d="M18.156 17.7258C21.2245 19.895 21.9549 20.4101 20.9847 20.8897C20.9956 20.887 21.0065 20.8842 21.0147 20.8815C21.1646 20.8352 21.3335 20.778 21.4998 20.7235C21.6142 20.6853 21.7259 20.6444 21.8377 20.6036C23.2111 19.9659 22.0148 19.0829 19.1534 16.9764C15.9895 14.6464 12.049 11.7468 8.70793 7.50651C-1.15709 -5.0128 9.37287 -11.2098 16.2893 -10.3568C8.42997 -12.06 -8.48228 -1.09404 18.1533 17.7258H18.156Z" fill="#262626"/>
<path id="Vector_7" d="M19.9606 15.2894C23.5387 18.0337 24.8795 19.061 23.1027 20.0857C23.1163 20.0802 23.1299 20.0721 23.1435 20.0666C23.4406 19.9249 23.8112 19.7287 24.0973 19.5843C25.4817 18.7749 24.9285 17.8347 24.1246 16.9409C20.759 13.1993 16.2898 10.7194 12.8425 7.07041C1.74844 -4.67496 9.19081 -10.5177 16.2925 -10.3542C9.05455 -11.0136 -3.86808 -2.97993 19.9606 15.2922V15.2894Z" fill="#262626"/>
<path id="Vector_8" d="M22.727 13.0196C26.1362 15.7502 27.3516 17.219 25.5312 18.6961C25.8419 18.4781 26.237 18.1674 26.5477 17.9303C26.703 17.8022 26.8665 17.6632 27.0218 17.5242C28.4362 16.2298 27.6432 15.5294 18.127 7.1469C4.33229 -5.00179 10.5483 -9.29117 15.0448 -10.1877C10.968 -9.42743 -0.40128 -5.5114 22.727 13.0196Z" fill="#262626"/>
<path id="Vector_9" d="M22.092 7.67282C27.7467 12.2238 29.8696 14.3058 28.0301 16.5677C28.0437 16.5541 28.0546 16.5432 28.0655 16.5295C28.3544 16.2189 28.7032 15.8074 28.9757 15.494C28.9812 15.4858 28.9866 15.4804 28.9921 15.4722C30.6026 13.3629 29.0629 11.1419 22.4245 5.98323C5.10346 -7.47353 14.279 -9.98611 16.2956 -10.354C14.8268 -10.1687 2.51185 -8.08396 22.0947 7.67282H22.092Z" fill="#262626"/>
<path id="Vector_10" d="M23.2603 4.03175C29.6589 8.81165 31.4194 11.2561 30.223 13.7006C30.2721 13.6188 30.3184 13.5398 30.3647 13.4607L30.4083 13.3844C30.441 13.3272 30.471 13.2754 30.501 13.2237L30.8662 12.5206C30.9098 12.4306 30.9534 12.3407 30.997 12.2535C32.4249 8.97789 27.0128 5.03733 23.4211 2.42391C11.7166 -6.09216 13.0846 -9.22335 16.2921 -10.3516C13.5533 -9.63757 8.74616 -6.80342 23.2603 4.0372V4.03175Z" fill="#262626"/>
<path id="Vector_11" d="M23.5709 0.320179C29.1575 4.25529 32.504 6.88777 31.8091 10.1716C31.8418 10.0598 31.8772 9.94812 31.9072 9.83911C32.0189 9.43034 32.1306 8.96979 32.2206 8.6019C32.7002 5.329 29.321 2.83276 23.7699 -0.963362C20.1018 -3.47322 13.2754 -8.14412 16.2921 -10.3569C11.5612 -8.14139 20.6005 -1.77273 23.5709 0.320179Z" fill="#262626"/>
<path id="Vector_12" d="M23.9828 -2.57372C30.2779 1.51127 32.4171 3.36437 32.5316 6.17672C32.5343 6.12222 32.5398 6.06498 32.5425 6.01048L32.5616 5.32375L32.5452 4.65881C32.5425 4.58251 32.5398 4.50892 32.5343 4.43262C32.2918 1.48129 28.3594 -0.952258 23.386 -4.02622C19.8869 -6.18726 15.9218 -8.63989 16.2952 -10.354C14.6574 -8.62081 20.2712 -4.98002 23.9855 -2.57099L23.9828 -2.57372Z" fill="#262626"/>
<path id="Vector_13" d="M23.5746 -5.18169C29.3737 -1.88971 31.5565 -0.290048 32.2514 2.12171C32.1642 1.70476 32.0225 1.17608 31.9053 0.729152C31.8781 0.636497 31.8508 0.546574 31.8236 0.453918C30.8807 -1.99871 27.7222 -3.75916 22.2365 -6.64236C18.3586 -8.68349 17.0805 -9.48196 16.293 -10.354C16.7453 -9.05684 19.6095 -7.42993 23.5746 -5.17896V-5.18169Z" fill="#262626"/>
</g>
</g>
</svg>
