<svg xmlns="http://www.w3.org/2000/svg" width="24" height="24" viewBox="0 0 24 24" fill="none">
  <path fill-rule="evenodd" clip-rule="evenodd" d="M18 12C18 12.4971 17.5971 12.9 17.1 12.9H9.1345L11.7238 15.2512C12.0821 15.5958 12.0933 16.1655 11.7487 16.5238C11.4042 16.8821 10.8345 16.8933 10.4762 16.5487L6.2762 12.6487C6.09973 12.4791 6 12.2448 6 12C6 11.7552 6.09973 11.5209 6.2762 11.3512L10.4762 7.45125C10.8345 7.10673 11.4042 7.11791 11.7487 7.4762C12.0933 7.83449 12.0821 8.40423 11.7238 8.74875L9.1345 11.1L17.1 11.1C17.5971 11.1 18 11.5029 18 12Z" fill="#333333"/>
</svg>