<svg width="73" height="45" viewBox="0 0 73 45" fill="none" xmlns="http://www.w3.org/2000/svg">
<g id="Abstract Design" opacity="0.9">
<g id="Group">
<path id="Vector" d="M24.2528 42.8808C24.3376 42.911 24.4284 42.9413 24.5192 42.9776C25.161 43.1956 25.9603 43.4439 26.5718 43.6316C27.2076 43.8132 28.0613 44.013 28.7031 44.1644C20.3535 42.1239 13.2269 37.5525 7.5293 30.5652L9.13383 32.5451C9.33364 32.7691 9.50923 32.969 9.67877 33.1506C10.2721 33.7682 10.9745 34.4827 11.689 35.1729C12.131 35.5786 12.682 36.063 13.4449 36.7411C13.8385 37.056 14.2986 37.4072 14.7709 37.7583C18.8216 40.7434 21.5887 41.8454 24.2589 42.8868L24.2528 42.8808Z" fill="#262626"/>
<path id="Vector_2" d="M2.7647 22.0522C9.40082 37.7222 26.0214 43.7225 31.8946 44.7095C31.9249 44.7095 31.9491 44.7155 31.9794 44.7216C32.2882 44.7579 32.6757 44.8003 32.9784 44.8306L33.596 44.8851C33.596 44.8851 33.6202 44.8851 33.6263 44.8851C30.1629 44.5642 6.34312 37.5345 0.978516 15.9126C1.03906 16.2335 1.09356 16.5484 1.15411 16.839C1.55373 18.3466 2.16527 20.3205 2.67993 21.8221C2.7102 21.9009 2.74048 21.9735 2.7647 22.0522Z" fill="#262626"/>
<path id="Vector_3" d="M35.7082 44.9941C35.8475 44.9941 35.9807 45.0002 36.1199 45.0002H36.1805C36.1805 45.0002 36.2289 45.0002 36.2471 45.0002C36.4045 45.0002 36.5559 45.0002 36.7133 45.0002C36.8465 45.0002 36.9797 45.0002 37.0948 45.0002C37.1008 45.0002 37.1069 45.0002 37.1129 45.0002C34.364 44.9517 -4.9683 30.0447 1.38929 -0.241699C1.38929 -0.241699 1.38929 -0.241712 1.38929 -0.235657C1.17132 0.618078 0.9594 1.76851 0.777754 2.6283C0.602163 3.73028 0.456847 5.21372 0.33575 6.32176C-0.31212 33.4899 32.1116 44.649 35.7082 44.9941Z" fill="#262626"/>
<path id="Vector_4" d="M4.92482 -8.99722C-11.0539 21.8099 33.7035 43.5589 39.056 44.9092C39.0924 44.9092 39.1287 44.9092 39.165 44.9031L39.4012 44.885C39.4375 44.885 39.4738 44.8789 39.5162 44.8728C39.7887 44.8486 40.1156 44.8123 40.3942 44.7881C40.4305 44.7881 40.4668 44.782 40.4971 44.776C34.1577 39.9563 26.4438 37.3285 20.3344 32.1455C17.3433 29.6085 10.3379 23.6687 6.24478 15.7248C-1.94744 -0.169227 5.3426 -10.3051 8.92102 -14.6646C8.79387 -14.5192 8.67277 -14.3739 8.55168 -14.2347L7.94619 -13.5141C7.00163 -12.2123 5.80883 -10.4262 4.95509 -9.05171C4.94298 -9.03354 4.93693 -9.01538 4.92482 -8.99722Z" fill="#262626"/>
<path id="Vector_5" d="M28.1452 -26.4353C28.1452 -26.4353 28.1876 -26.4474 28.2118 -26.4534C28.1573 -26.4413 28.0907 -26.4292 28.0423 -26.4171C27.6426 -26.3263 27.1219 -26.187 26.7284 -26.078C25.917 -25.854 24.8453 -25.521 24.0582 -25.2243C23.5738 -25.0427 22.932 -24.8005 22.4597 -24.6007C21.8905 -24.3585 21.1458 -24.0073 20.5827 -23.7469C20.0075 -23.4805 19.2627 -23.0869 18.7178 -22.766C18.076 -22.3906 17.2828 -21.9002 16.5804 -21.4461C9.34488 -16.469 3.63515 -8.48264 4.42228 0.520926C6.28717 21.7614 30.3431 36.3293 39.3951 41.815C41.4861 43.0825 42.5921 43.9625 42.7132 44.4549C42.7132 44.4549 42.7556 44.4489 42.7737 44.4428C43.2702 44.352 43.8939 44.2188 44.3904 44.1159C44.4085 44.1159 44.4267 44.1098 44.4449 44.1038C44.6205 44.0432 44.7476 43.7889 44.8687 43.6436C44.457 42.8504 43.6517 42.2813 39.2982 39.4294C28.0968 32.0909 16.8226 23.6505 10.241 11.6921C-4.61156 -15.3065 24.1914 -29.275 36.5312 -25.9872C34.1395 -26.9136 31.2271 -27.0166 28.1513 -26.4413L28.1452 -26.4353Z" fill="#262626"/>
<path id="Vector_6" d="M40.6677 36.4142C47.4854 41.2338 49.1081 42.3782 46.9526 43.4439C46.9768 43.4378 47.001 43.4318 47.0192 43.4257C47.3522 43.3228 47.7276 43.1956 48.097 43.0745C48.3513 42.9898 48.5995 42.8989 48.8478 42.8081C51.8994 41.3913 49.2413 39.4295 42.8837 34.7491C35.8541 29.5722 27.0987 23.1298 19.6755 13.7085C-2.24309 -14.1075 21.1529 -27.8763 36.5201 -25.9811C19.0579 -29.7654 -18.5185 -5.40064 40.6616 36.4142H40.6677Z" fill="#262626"/>
<path id="Vector_7" d="M44.6755 31.001C52.6255 37.0983 55.6045 39.3809 51.6567 41.6575C51.687 41.6454 51.7173 41.6273 51.7475 41.6152C52.4075 41.3003 53.231 40.8644 53.8667 40.5435C56.9426 38.7452 55.7135 36.6562 53.9273 34.6703C46.4495 26.3569 36.5196 20.847 28.8602 12.7396C4.21088 -13.3568 20.7467 -26.3385 36.5256 -25.9752C20.4439 -27.4404 -8.26817 -9.59074 44.6755 31.0071V31.001Z" fill="#262626"/>
<path id="Vector_8" d="M50.8217 25.9577C58.3963 32.0246 61.0968 35.2882 57.0521 38.57C57.7424 38.0856 58.6203 37.3953 59.3106 36.8685C59.6557 36.5839 60.019 36.2752 60.3641 35.9664C63.5066 33.0903 61.7446 31.5342 40.6011 12.9095C9.95142 -14.0831 23.7625 -23.6134 33.7531 -25.6055C24.695 -23.9162 -0.565863 -15.2153 50.8217 25.9577Z" fill="#262626"/>
<path id="Vector_9" d="M49.4113 14.078C61.9751 24.1896 66.6919 28.8155 62.6048 33.841C62.6351 33.8108 62.6593 33.7866 62.6835 33.7563C63.3254 33.066 64.1004 32.1518 64.7059 31.4554C64.718 31.4373 64.7301 31.4252 64.7422 31.407C68.3206 26.7205 64.8996 21.7858 50.15 10.324C11.6653 -19.5749 32.052 -25.1574 36.5326 -25.9749C33.2691 -25.5631 5.90717 -20.9312 49.4174 14.078H49.4113Z" fill="#262626"/>
<path id="Vector_10" d="M52.008 5.98853C66.2248 16.6087 70.1363 22.04 67.4782 27.4712C67.5872 27.2895 67.6901 27.1139 67.793 26.9383L67.8899 26.7688C67.9626 26.6416 68.0292 26.5266 68.0958 26.4116L68.9071 24.8494C69.004 24.6496 69.1009 24.4498 69.1978 24.256C72.3705 16.9781 60.3456 8.22277 52.3653 2.41617C26.3597 -16.5053 29.3992 -23.4623 36.5258 -25.969C30.4406 -24.3826 19.7599 -18.0856 52.008 6.00065V5.98853Z" fill="#262626"/>
<path id="Vector_11" d="M52.6976 -2.25829C65.1101 6.48492 72.5454 12.3339 71.0014 19.63C71.0741 19.3818 71.1528 19.1335 71.2194 18.8913C71.4677 17.9831 71.7159 16.9598 71.9157 16.1424C72.9814 8.87054 65.4734 3.3243 53.1396 -5.11012C44.9898 -10.6866 29.8224 -21.0647 36.5251 -25.9812C26.0139 -21.0586 46.0978 -6.90841 52.6976 -2.25829Z" fill="#262626"/>
<path id="Vector_12" d="M53.6129 -8.68825C67.5996 0.387976 72.3527 4.50529 72.607 10.7539C72.613 10.6328 72.6252 10.5056 72.6312 10.3845L72.6736 8.85872L72.6373 7.38134C72.6312 7.2118 72.6252 7.04831 72.613 6.87877C72.0742 0.321367 63.337 -5.08561 52.2869 -11.9155C44.5125 -16.717 35.7027 -22.1664 36.5322 -25.9749C32.8932 -22.124 45.3662 -14.0347 53.619 -8.68219L53.6129 -8.68825Z" fill="#262626"/>
<path id="Vector_13" d="M52.704 -14.4828C65.5887 -7.16849 70.4386 -3.61428 71.9826 1.74427C71.7889 0.817877 71.474 -0.356775 71.2136 -1.34977C71.1531 -1.55564 71.0926 -1.75543 71.032 -1.9613C68.937 -7.41067 61.9195 -11.3221 49.731 -17.7281C41.115 -22.2632 38.2752 -24.0373 36.5254 -25.9749C37.5305 -23.0927 43.8941 -19.478 52.704 -14.4767V-14.4828Z" fill="#262626"/>
</g>
</g>
</svg>
