<svg width="33" height="22" viewBox="0 0 33 22" fill="none" xmlns="http://www.w3.org/2000/svg">
<g id="Abstract Design" opacity="0.9">
<g id="Group">
<path id="Vector" d="M10.769 20.6362C10.8072 20.6498 10.8481 20.6635 10.8889 20.6798C11.1778 20.7779 11.5375 20.8896 11.8128 20.9741C12.0989 21.0559 12.4832 21.1458 12.772 21.2139C9.01404 20.2956 5.80655 18.2381 3.24219 15.0933L3.96435 15.9844C4.05428 16.0852 4.13331 16.1751 4.20961 16.2569C4.47668 16.5349 4.79279 16.8564 5.11436 17.1671C5.3133 17.3497 5.56129 17.5677 5.90465 17.8729C6.08179 18.0146 6.2889 18.1727 6.50146 18.3307C8.32458 19.6742 9.56997 20.1702 10.7718 20.6389L10.769 20.6362Z" fill="#262626"/>
<path id="Vector_2" d="M1.09689 11.2618C4.08364 18.3145 11.5642 21.0151 14.2076 21.4593C14.2212 21.4593 14.2321 21.462 14.2457 21.4648C14.3847 21.4811 14.5591 21.5002 14.6954 21.5138L14.9733 21.5384C14.9733 21.5384 14.9842 21.5384 14.9869 21.5384C13.4282 21.3939 2.70745 18.23 0.292969 8.49854C0.32022 8.64297 0.344747 8.78467 0.371998 8.91548C0.551858 9.59404 0.827097 10.4824 1.05873 11.1583C1.07236 11.1937 1.08599 11.2264 1.09689 11.2618Z" fill="#262626"/>
<path id="Vector_3" d="M15.9246 21.5873C15.9873 21.5873 16.0472 21.5901 16.1099 21.5901H16.1372C16.1372 21.5901 16.159 21.5901 16.1671 21.5901C16.238 21.5901 16.3061 21.5901 16.377 21.5901C16.4369 21.5901 16.4969 21.5901 16.5487 21.5901C16.5514 21.5901 16.5541 21.5901 16.5568 21.5901C15.3196 21.5683 -2.38292 14.859 0.478486 1.22778C0.478486 1.22778 0.478486 1.22778 0.478486 1.2305C0.380381 1.61475 0.285001 2.13253 0.203246 2.5195C0.124217 3.01548 0.0588136 3.68314 0.00431072 4.18184C-0.28728 16.4096 14.3059 21.432 15.9246 21.5873Z" fill="#262626"/>
<path id="Vector_4" d="M2.07053 -2.71294C-5.12112 11.1526 15.0231 20.9413 17.4322 21.549C17.4485 21.549 17.4649 21.549 17.4812 21.5463L17.5875 21.5381C17.6039 21.5381 17.6202 21.5354 17.6393 21.5327C17.7619 21.5218 17.9091 21.5054 18.0344 21.4945C18.0508 21.4945 18.0671 21.4918 18.0808 21.4891C15.2275 19.3199 11.7557 18.1371 9.00602 15.8044C7.6598 14.6626 4.50681 11.9892 2.66461 8.41383C-1.02251 1.26032 2.25856 -3.30157 3.86912 -5.26367C3.8119 -5.19827 3.75739 -5.13287 3.70289 -5.07019L3.43038 -4.7459C3.00525 -4.15999 2.4684 -3.35607 2.08416 -2.73747C2.07871 -2.72929 2.07598 -2.72112 2.07053 -2.71294Z" fill="#262626"/>
<path id="Vector_5" d="M12.5223 -10.5614C12.5223 -10.5614 12.5414 -10.5668 12.5523 -10.5696C12.5278 -10.5641 12.4978 -10.5587 12.476 -10.5532C12.2961 -10.5123 12.0618 -10.4496 11.8846 -10.4006C11.5195 -10.2998 11.0371 -10.1499 10.6828 -10.0163C10.4648 -9.93459 10.176 -9.82559 9.96341 -9.73566C9.70725 -9.62665 9.37206 -9.46859 9.11862 -9.35141C8.85973 -9.2315 8.52453 -9.05437 8.27927 -8.90994C7.99041 -8.74098 7.63341 -8.52025 7.3173 -8.31586C4.06075 -6.07579 1.49094 -2.48133 1.84521 1.57096C2.68455 11.1308 13.5115 17.6875 17.5856 20.1564C18.5267 20.7269 19.0245 21.123 19.079 21.3446C19.079 21.3446 19.0981 21.3419 19.1063 21.3392C19.3297 21.2983 19.6104 21.2383 19.8339 21.192C19.8421 21.192 19.8502 21.1893 19.8584 21.1865C19.9374 21.1593 19.9947 21.0448 20.0492 20.9794C19.8639 20.6224 19.5014 20.3663 17.542 19.0827C12.5005 15.7799 7.4263 11.981 4.46407 6.59885C-2.22071 -5.55256 10.7428 -11.8395 16.2966 -10.3597C15.2202 -10.7767 13.9094 -10.823 12.525 -10.5641L12.5223 -10.5614Z" fill="#262626"/>
<path id="Vector_6" d="M18.157 17.7258C21.2255 19.895 21.9558 20.4101 20.9857 20.8897C20.9966 20.887 21.0075 20.8842 21.0157 20.8815C21.1655 20.8352 21.3345 20.778 21.5007 20.7235C21.6152 20.6853 21.7269 20.6444 21.8387 20.6036C23.2121 19.9659 22.0158 19.0829 19.1544 16.9764C15.9905 14.6464 12.0499 11.7468 8.70891 7.50651C-1.15611 -5.0128 9.37384 -11.2098 16.2903 -10.3568C8.43094 -12.06 -8.4813 -1.09404 18.1543 17.7258H18.157Z" fill="#262626"/>
<path id="Vector_7" d="M19.9616 15.2894C23.5397 18.0337 24.8804 19.061 23.1036 20.0857C23.1173 20.0802 23.1309 20.0721 23.1445 20.0666C23.4416 19.9249 23.8122 19.7287 24.0983 19.5843C25.4827 18.7749 24.9295 17.8347 24.1256 16.9409C20.76 13.1993 16.2908 10.7194 12.8435 7.07041C1.74941 -4.67496 9.19178 -10.5177 16.2935 -10.3542C9.05553 -11.0136 -3.86711 -2.97993 19.9616 15.2922V15.2894Z" fill="#262626"/>
<path id="Vector_8" d="M22.727 13.0196C26.1362 15.7502 27.3516 17.219 25.5312 18.6961C25.8419 18.4781 26.237 18.1674 26.5477 17.9303C26.703 17.8022 26.8665 17.6632 27.0218 17.5242C28.4362 16.2298 27.6432 15.5294 18.127 7.1469C4.33229 -5.00179 10.5483 -9.29117 15.0448 -10.1877C10.968 -9.42743 -0.40128 -5.5114 22.727 13.0196Z" fill="#262626"/>
<path id="Vector_9" d="M22.093 7.67282C27.7477 12.2238 29.8706 14.3058 28.0311 16.5677C28.0447 16.5541 28.0556 16.5432 28.0665 16.5295C28.3554 16.2189 28.7042 15.8074 28.9767 15.494C28.9822 15.4858 28.9876 15.4804 28.9931 15.4722C30.6036 13.3629 29.0639 11.1419 22.4255 5.98323C5.10444 -7.47353 14.28 -9.98611 16.2966 -10.354C14.8278 -10.1687 2.51283 -8.08396 22.0957 7.67282H22.093Z" fill="#262626"/>
<path id="Vector_10" d="M23.2613 4.03175C29.6599 8.81165 31.4203 11.2561 30.224 13.7006C30.273 13.6188 30.3194 13.5398 30.3657 13.4607L30.4093 13.3844C30.442 13.3272 30.472 13.2754 30.502 13.2237L30.8671 12.5206C30.9107 12.4306 30.9543 12.3407 30.9979 12.2535C32.4259 8.97789 27.0138 5.03733 23.422 2.42391C11.7175 -6.09216 13.0856 -9.22335 16.2931 -10.3516C13.5543 -9.63757 8.74714 -6.80342 23.2613 4.0372V4.03175Z" fill="#262626"/>
<path id="Vector_11" d="M23.5709 0.320179C29.1575 4.25529 32.504 6.88777 31.8091 10.1716C31.8418 10.0598 31.8772 9.94812 31.9072 9.83911C32.0189 9.43034 32.1306 8.96979 32.2206 8.6019C32.7002 5.329 29.321 2.83276 23.7699 -0.963362C20.1018 -3.47322 13.2754 -8.14412 16.2921 -10.3569C11.5612 -8.14139 20.6005 -1.77273 23.5709 0.320179Z" fill="#262626"/>
<path id="Vector_12" d="M23.9838 -2.57372C30.2789 1.51127 32.4181 3.36437 32.5326 6.17672C32.5353 6.12222 32.5407 6.06498 32.5435 6.01048L32.5625 5.32375L32.5462 4.65881C32.5435 4.58251 32.5408 4.50892 32.5353 4.43262C32.2928 1.48129 28.3604 -0.952258 23.387 -4.02622C19.8879 -6.18726 15.9228 -8.63989 16.2962 -10.354C14.6584 -8.62081 20.2722 -4.98002 23.9865 -2.57099L23.9838 -2.57372Z" fill="#262626"/>
<path id="Vector_13" d="M23.5746 -5.18169C29.3737 -1.88971 31.5565 -0.290048 32.2514 2.12171C32.1642 1.70476 32.0225 1.17608 31.9053 0.729152C31.8781 0.636497 31.8508 0.546574 31.8236 0.453918C30.8807 -1.99871 27.7222 -3.75916 22.2365 -6.64236C18.3586 -8.68349 17.0805 -9.48196 16.293 -10.354C16.7453 -9.05684 19.6095 -7.42993 23.5746 -5.17896V-5.18169Z" fill="#262626"/>
</g>
</g>
</svg>
