<svg width="41" height="29" viewBox="0 0 41 29" fill="none" xmlns="http://www.w3.org/2000/svg">
<g id="Abstract Design" opacity="0.9">
<g id="Group">
<path id="Vector" d="M24.5195 0.728271C24.6122 0.738203 24.7016 0.748136 24.7943 0.761378C24.7049 0.748136 24.6122 0.738203 24.5195 0.728271Z" fill="#262626"/>
<path id="Vector_2" d="M30.2451 2.57567L29.7452 2.30753C29.732 2.3009 29.7154 2.29097 29.7022 2.28435C29.6492 2.25787 29.5963 2.23137 29.5433 2.20489C29.5764 2.22144 29.6128 2.238 29.6492 2.25456C29.5698 2.21152 29.4903 2.17179 29.4109 2.12876L29.06 1.96985C29.0898 1.98309 29.1229 1.99965 29.1527 2.01289C28.7223 1.81426 28.2853 1.6355 27.8351 1.47659C25.9117 1.02306 23.9287 0.834354 20.5156 0.778076C26.8419 1.08926 29.0136 1.99303 29.7419 2.30421C29.9108 2.39028 30.0796 2.47967 30.2451 2.57567Z" fill="#262626"/>
<path id="Vector_3" d="M25.2099 0.576051C24.9616 0.516462 24.7133 0.456874 24.5014 0.410527L24.369 0.384038C23.6407 0.268171 22.194 0.496601 20.5156 0.784613C20.6613 0.76475 20.8036 0.748196 20.9493 0.731644C23.7268 0.413838 24.5312 0.466808 25.2099 0.579365V0.576051Z" fill="#262626"/>
<path id="Vector_4" d="M23.1607 0.178709C22.9422 0.148915 22.6707 0.119121 22.4589 0.0959473C22.4589 0.0959473 22.4523 0.0959473 22.4489 0.0959473C22.4092 0.105879 22.4026 0.109192 20.5156 0.781218C22.7072 0.198574 22.9223 0.195261 23.217 0.18864C23.2004 0.18864 23.1806 0.185333 23.1607 0.182023V0.178709Z" fill="#262626"/>
<path id="Vector_5" d="M21.5074 0.0529587C21.4776 0.0430273 21.4412 0.0297935 21.4114 0.0198621C21.4114 0.0198621 21.4081 0.0198621 21.4048 0.0198621C21.1995 0.00993062 21.0737 0.00661732 21.0605 0.00661732C20.9446 0.00661732 20.799 0 20.6765 0C20.9082 0.00993143 20.9148 0.0165496 21.0208 0.152279C20.9766 0.311182 20.8089 0.520844 20.5176 0.781268C21.4478 0.264833 21.4776 0.165515 21.5107 0.0529587H21.5074Z" fill="#262626"/>
<path id="Vector_6" d="M2.05472 27.0433C5.683 35.6109 14.7703 38.8915 17.9814 39.4312C17.998 39.4312 18.0112 39.4345 18.0278 39.4378C18.1966 39.4576 18.4085 39.4808 18.574 39.4974L18.9117 39.5272C18.9117 39.5272 18.9249 39.5272 18.9282 39.5272C17.0346 39.3517 4.01121 35.5082 1.07812 23.6865C1.11123 23.862 1.14102 24.0341 1.17413 24.193C1.39262 25.0173 1.72698 26.0966 2.00837 26.9176C2.02492 26.9606 2.04147 27.0003 2.05472 27.0433Z" fill="#262626"/>
<path id="Vector_7" d="M19.9606 0.152192C20.4108 0.321027 20.434 0.420339 20.5134 0.781181C20.8412 0.0429447 20.1592 0.0297068 19.5567 0.0197754C19.3448 0.0297068 19.0634 0.0495644 18.8549 0.0661168L18.6562 0.0826753C18.9641 0.0628124 19.6064 0.0197734 19.9606 0.152192Z" fill="#262626"/>
<path id="Vector_8" d="M20.0677 39.5868C20.1438 39.5868 20.2167 39.5901 20.2928 39.5901H20.3259C20.3259 39.5901 20.3524 39.5901 20.3623 39.5901C20.4484 39.5901 20.5312 39.5901 20.6172 39.5901C20.6901 39.5901 20.7629 39.5901 20.8258 39.5901C20.8291 39.5901 20.8324 39.5901 20.8357 39.5901C19.3328 39.5637 -2.17209 31.4133 1.30392 14.8542C1.30392 14.8542 1.30392 14.8542 1.30392 14.8576C1.18474 15.3243 1.06887 15.9533 0.969558 16.4234C0.873554 17.0259 0.794102 17.837 0.727893 18.4428C0.373672 33.2969 18.1013 39.3981 20.0677 39.5868Z" fill="#262626"/>
<path id="Vector_9" d="M16.8276 0.344337C16.7878 0.350958 16.7448 0.360892 16.7051 0.367513C19.125 -0.0462966 20.1347 0.549589 20.5187 0.781323C19.8335 0.0265339 18.6417 0.0397734 16.8309 0.344337H16.8276Z" fill="#262626"/>
<path id="Vector_10" d="M3.23793 10.0671C-5.49842 26.9108 18.9726 38.8021 21.8991 39.5403C21.919 39.5403 21.9388 39.5403 21.9587 39.537L22.0878 39.5271C22.1076 39.5271 22.1275 39.5237 22.1507 39.5204C22.2997 39.5072 22.4784 39.4873 22.6307 39.4741C22.6506 39.4741 22.6704 39.4708 22.687 39.4675C19.2209 36.8323 15.0034 35.3956 11.6631 32.5618C10.0277 31.1747 6.19749 27.9271 3.95961 23.5838C-0.519463 14.8938 3.46635 9.35205 5.42284 6.96851C5.35332 7.04796 5.28711 7.12741 5.2209 7.20355L4.88986 7.59749C4.37342 8.30925 3.72126 9.28584 3.25448 10.0373C3.24786 10.0472 3.24455 10.0572 3.23793 10.0671Z" fill="#262626"/>
<path id="Vector_11" d="M15.9321 0.532907C15.9321 0.532907 15.9552 0.526286 15.9685 0.522976C15.9387 0.529597 15.9023 0.536217 15.8758 0.542838C15.6573 0.592495 15.3726 0.668635 15.1574 0.728224C14.7138 0.850711 14.1278 1.03279 13.6975 1.195C13.4326 1.29432 13.0817 1.42674 12.8235 1.53598C12.5123 1.6684 12.1051 1.86041 11.7973 2.00276C11.4828 2.14842 11.0756 2.3636 10.7776 2.53906C10.4267 2.7443 9.99306 3.01245 9.60905 3.26074C5.65303 5.98195 2.53124 10.3485 2.96161 15.2711C3.98123 26.8843 17.1338 34.8493 22.0829 37.8486C23.2261 38.5416 23.8309 39.0227 23.8971 39.292C23.8971 39.292 23.9202 39.2887 23.9302 39.2854C24.2016 39.2357 24.5426 39.1629 24.8141 39.1066C24.824 39.1066 24.8339 39.1033 24.8439 39.1C24.9399 39.0669 25.0094 38.9278 25.0756 38.8484C24.8505 38.4147 24.4102 38.1035 22.03 36.5443C15.9056 32.532 9.74146 27.9172 6.14298 21.379C-1.97763 6.61756 13.7703 -1.01971 20.5171 0.777879C19.2094 0.271376 17.6171 0.215098 15.9354 0.529593L15.9321 0.532907Z" fill="#262626"/>
<path id="Vector_12" d="M22.7799 34.8957C26.5075 37.5308 27.3947 38.1565 26.2162 38.7392C26.2294 38.7359 26.2427 38.7325 26.2526 38.7292C26.4347 38.673 26.6399 38.6034 26.8419 38.5372C26.9809 38.4909 27.1167 38.4412 27.2524 38.3916C28.9209 37.6169 27.4676 36.5443 23.9916 33.9853C20.1481 31.1549 15.3611 27.6325 11.3025 22.4814C-0.681424 7.27307 12.1103 -0.254949 20.5122 0.781231C10.9648 -1.28782 -9.57999 12.0335 22.7766 34.8957H22.7799Z" fill="#262626"/>
<path id="Vector_13" d="M24.9706 31.9361C29.3172 35.2697 30.946 36.5178 28.7875 37.7625C28.8041 37.7559 28.8206 37.746 28.8372 37.7394C29.198 37.5672 29.6483 37.3288 29.9959 37.1534C31.6776 36.1702 31.0056 35.0281 30.029 33.9422C25.9405 29.397 20.5113 26.3844 16.3236 21.9517C2.84664 7.68353 11.8875 0.585865 20.5147 0.784494C11.722 -0.0166419 -3.97626 9.74264 24.9706 31.9394V31.9361Z" fill="#262626"/>
<path id="Vector_14" d="M28.3312 29.1786C32.4726 32.4957 33.9491 34.2801 31.7377 36.0743C32.115 35.8095 32.5951 35.4321 32.9725 35.1441C33.1612 34.9885 33.3598 34.8197 33.5485 34.6508C35.2666 33.0783 34.3033 32.2276 22.7431 22.0445C5.98545 7.28642 13.5367 2.07572 18.9989 0.986572C14.0465 1.9102 0.235155 6.66735 28.3312 29.1786Z" fill="#262626"/>
<path id="Vector_15" d="M20.2938 0.797852C19.8866 0.834267 19.4496 0.897168 18.9961 0.986551C19.5787 0.877305 20.0356 0.821025 20.2938 0.797852Z" fill="#262626"/>
<path id="Vector_16" d="M20.5148 0.78125C20.5148 0.78125 20.4221 0.787867 20.293 0.797798C20.3658 0.791177 20.4419 0.78456 20.5148 0.78125Z" fill="#262626"/>
<path id="Vector_17" d="M27.5593 22.6835C34.4285 28.212 37.0074 30.7412 34.7728 33.4889C34.7894 33.4723 34.8026 33.4591 34.8159 33.4425C35.1668 33.0651 35.5905 32.5653 35.9216 32.1845C35.9282 32.1746 35.9348 32.168 35.9414 32.1581C37.8979 29.5957 36.0275 26.8977 27.9632 20.631C6.92178 4.28384 18.0682 1.23158 20.5179 0.784668C18.7336 1.00978 3.77351 3.54229 27.5626 22.6835H27.5593Z" fill="#262626"/>
<path id="Vector_18" d="M28.9791 18.2605C36.7521 24.0671 38.8906 27.0366 37.4373 30.0061C37.4969 29.9068 37.5532 29.8108 37.6095 29.7148L37.6625 29.6221C37.7022 29.5526 37.7386 29.4897 37.775 29.4268L38.2186 28.5727C38.2716 28.4634 38.3246 28.3542 38.3775 28.2483C40.1122 24.2691 33.5376 19.4821 29.1744 16.3074C14.9559 5.96212 16.6178 2.15838 20.5142 0.787842C17.1872 1.65519 11.3475 5.09809 28.9791 18.2672V18.2605Z" fill="#262626"/>
<path id="Vector_19" d="M29.3568 13.7517C36.1433 18.532 40.2086 21.7299 39.3644 25.7191C39.4041 25.5833 39.4472 25.4476 39.4836 25.3152C39.6193 24.8186 39.755 24.2592 39.8643 23.8122C40.4469 19.8364 36.3419 16.804 29.5985 12.1925C25.1426 9.14352 16.8498 3.46936 20.5145 0.78125C14.7675 3.47267 25.7484 11.2093 29.3568 13.7517Z" fill="#262626"/>
<path id="Vector_20" d="M29.856 10.2361C37.5032 15.1985 40.1019 17.4496 40.241 20.866C40.2443 20.7998 40.2509 20.7303 40.2542 20.6641L40.2774 19.8298L40.2575 19.0221C40.2542 18.9294 40.2509 18.84 40.2443 18.7473C39.9496 15.1621 35.1726 12.2058 29.131 8.4716C24.8804 5.84639 20.0636 2.86696 20.5171 0.784668C18.5275 2.89013 25.3471 7.31293 29.8593 10.2394L29.856 10.2361Z" fill="#262626"/>
<path id="Vector_21" d="M29.3612 7.06795C36.4059 11.067 39.0576 13.0103 39.9018 15.94C39.7958 15.4335 39.6237 14.7913 39.4813 14.2484C39.4482 14.1358 39.4151 14.0266 39.382 13.914C38.2366 10.9346 34.3998 8.79602 27.7358 5.29354C23.025 2.81399 21.4724 1.84402 20.5156 0.784668C21.0652 2.36046 24.5445 4.33681 29.3612 7.07126V7.06795Z" fill="#262626"/>
<path id="Vector_22" d="M38.3743 11.3284C38.3445 11.2688 38.318 11.2093 38.2882 11.1497L37.8877 10.3585L37.6195 9.88506C37.5698 9.79899 37.5202 9.71292 37.4672 9.62685C36.5602 8.21658 34.9182 7.16716 32.5677 5.93567C28.6845 3.90303 24.5199 2.5358 20.5176 0.78125C21.7656 1.57576 24.0598 2.6285 26.9631 3.96262C34.6666 7.50152 37.0402 9.03096 38.3776 11.3284H38.3743Z" fill="#262626"/>
<path id="Vector_23" d="M35.9722 7.47835C35.9358 7.432 35.9027 7.39228 35.863 7.34262C35.8398 7.31282 35.8167 7.28634 35.7902 7.25654C35.7604 7.22013 35.7306 7.18372 35.7008 7.1473C35.4095 6.80963 35.0817 6.44216 34.8202 6.14753C33.0988 4.38305 28.2853 2.57884 20.5156 0.78125C32.3009 4.31353 34.5818 5.96877 35.9722 7.47835Z" fill="#262626"/>
<path id="Vector_24" d="M32.7412 4.26387C32.4532 4.04207 32.1387 3.81033 31.8673 3.6117C31.811 3.57198 31.7547 3.53557 31.6984 3.49585C29.828 2.31732 26.0706 1.40362 20.5156 0.78125C23.9718 1.29437 30.1524 2.45304 32.9862 4.4625C32.9034 4.39298 32.8207 4.32677 32.7412 4.26387Z" fill="#262626"/>
<path id="Vector_25" d="M24.8987 0.777986C25.3589 0.840885 25.8157 0.923647 26.2593 1.02627C27.0505 1.15869 27.1498 1.18849 27.7523 1.38381C27.7358 1.37719 27.7159 1.36726 27.6994 1.36395C27.3981 1.24477 26.9876 1.10572 26.6797 0.996479H26.6731C25.9481 0.761435 25.0973 0.731646 24.1108 0.69192C24.1572 0.695231 24.2002 0.701845 24.2465 0.705155C23.7433 0.658808 23.2302 0.632324 22.7105 0.632324C21.9126 0.67205 21.8067 0.678678 20.5156 0.784613C22.5681 0.698541 23.4951 0.71509 24.8987 0.7813V0.777986ZM24.518 0.731645C24.6107 0.741576 24.7001 0.751509 24.7928 0.764751C24.7034 0.751509 24.6107 0.741576 24.518 0.731645Z" fill="#262626"/>
</g>
</g>
</svg>
