<svg width="33" height="17" viewBox="0 0 33 17" fill="none" xmlns="http://www.w3.org/2000/svg">
<g id="Abstract Design" opacity="0.9">
<g id="Group">
<path id="Vector" d="M19.8086 0.599609C19.8849 0.607785 19.9585 0.615962 20.0348 0.626862C19.9612 0.615962 19.8849 0.607785 19.8086 0.599609Z" fill="#262626"/>
<path id="Vector_2" d="M24.5209 2.12014L24.1094 1.8994C24.0985 1.89395 24.0849 1.88578 24.074 1.88033C24.0304 1.85853 23.9868 1.83672 23.9432 1.81492C23.9704 1.82854 24.0004 1.84218 24.0304 1.8558C23.965 1.82037 23.8996 1.78767 23.8342 1.75224L23.5453 1.62143C23.5698 1.63233 23.5971 1.64596 23.6216 1.65686C23.2674 1.49335 22.9076 1.3462 22.537 1.21539C20.9537 0.842046 19.3213 0.686708 16.5117 0.640381C21.7195 0.896544 23.5072 1.64051 24.1067 1.89668C24.2457 1.96753 24.3847 2.04111 24.5209 2.12014Z" fill="#262626"/>
<path id="Vector_3" d="M20.376 0.474161C20.1716 0.425108 19.9672 0.376056 19.7928 0.337904L19.6838 0.316098C19.0843 0.220718 17.8934 0.408759 16.5117 0.645846C16.6316 0.629495 16.7488 0.615869 16.8687 0.602243C19.1551 0.340629 19.8173 0.384234 20.376 0.476889V0.474161Z" fill="#262626"/>
<path id="Vector_4" d="M18.6891 0.14723C18.5092 0.122704 18.2858 0.0981776 18.1114 0.0791016C18.1114 0.0791016 18.1059 0.0791016 18.1032 0.0791016C18.0705 0.087277 18.0651 0.0900041 16.5117 0.643208C18.3158 0.163583 18.4929 0.160856 18.7354 0.155405C18.7218 0.155405 18.7055 0.152683 18.6891 0.149958V0.14723Z" fill="#262626"/>
<path id="Vector_5" d="M17.3285 0.043595C17.304 0.0354196 17.274 0.0245256 17.2495 0.0163502C17.2495 0.0163502 17.2467 0.0163502 17.244 0.0163502C17.0751 0.00817477 16.9715 0.00544729 16.9606 0.00544729C16.8652 0.00544729 16.7453 0 16.6445 0C16.8352 0.00817543 16.8407 0.0136234 16.9279 0.125354C16.8916 0.256161 16.7535 0.428752 16.5137 0.64313C17.2794 0.218008 17.304 0.13625 17.3312 0.043595H17.3285Z" fill="#262626"/>
<path id="Vector_6" d="M16.0561 0.125362C16.4267 0.264344 16.4458 0.346097 16.5112 0.643137C16.781 0.0354301 16.2196 0.0245329 15.7237 0.0163574C15.5493 0.0245329 15.3176 0.0408794 15.1459 0.0545051L14.9824 0.0681358C15.2359 0.051785 15.7645 0.0163558 16.0561 0.125362Z" fill="#262626"/>
<path id="Vector_7" d="M16.1434 32.5873C16.206 32.5873 16.266 32.5901 16.3287 32.5901H16.3559C16.3559 32.5901 16.3777 32.5901 16.3859 32.5901C16.4567 32.5901 16.5249 32.5901 16.5957 32.5901C16.6557 32.5901 16.7156 32.5901 16.7674 32.5901C16.7701 32.5901 16.7729 32.5901 16.7756 32.5901C15.5384 32.5683 -2.16417 25.859 0.697236 12.2278C0.697236 12.2278 0.697236 12.2278 0.697236 12.2305C0.599131 12.6147 0.503751 13.1325 0.421996 13.5195C0.342967 14.0155 0.277564 14.6831 0.223061 15.1818C-0.0685297 27.4096 14.5246 32.432 16.1434 32.5873Z" fill="#262626"/>
<path id="Vector_8" d="M13.4758 0.283462C13.4431 0.288912 13.4077 0.29709 13.375 0.30254C15.3671 -0.0381029 16.1982 0.452423 16.5144 0.643183C15.9503 0.0218503 14.9692 0.0327488 13.4786 0.283462H13.4758Z" fill="#262626"/>
<path id="Vector_9" d="M2.28928 8.28706C-4.90237 22.1526 15.2419 31.9413 17.6509 32.549C17.6673 32.549 17.6836 32.549 17.7 32.5463L17.8063 32.5381C17.8226 32.5381 17.839 32.5354 17.858 32.5327C17.9807 32.5218 18.1278 32.5054 18.2532 32.4945C18.2695 32.4945 18.2859 32.4918 18.2995 32.4891C15.4463 30.3199 11.9744 29.1371 9.22477 26.8044C7.87855 25.6626 4.72556 22.9892 2.88336 19.4138C-0.803758 12.2603 2.47731 7.69843 4.08787 5.73633C4.03065 5.80173 3.97614 5.86713 3.92164 5.92981L3.64913 6.2541C3.224 6.84001 2.68715 7.64393 2.30291 8.26253C2.29746 8.27071 2.29473 8.27888 2.28928 8.28706Z" fill="#262626"/>
<path id="Vector_10" d="M12.7411 0.438624C12.7411 0.438624 12.7601 0.433174 12.771 0.430449C12.7465 0.4359 12.7165 0.441349 12.6947 0.4468C12.5149 0.487677 12.2805 0.550354 12.1034 0.599407C11.7382 0.700237 11.2559 0.850121 10.9016 0.983653C10.6836 1.06541 10.3947 1.17441 10.1822 1.26434C9.926 1.37335 9.59081 1.53141 9.33737 1.64859C9.07848 1.7685 8.74328 1.94563 8.49802 2.09006C8.20916 2.25902 7.85216 2.47975 7.53605 2.68414C4.2795 4.92421 1.70969 8.51867 2.06396 12.571C2.9033 22.1308 13.7303 28.6875 17.8044 31.1564C18.7455 31.7269 19.2433 32.123 19.2978 32.3446C19.2978 32.3446 19.3168 32.3419 19.325 32.3392C19.5485 32.2983 19.8292 32.2383 20.0526 32.192C20.0608 32.192 20.069 32.1893 20.0772 32.1865C20.1562 32.1593 20.2134 32.0448 20.2679 31.9794C20.0826 31.6224 19.7202 31.3663 17.7608 30.0827C12.7193 26.7799 7.64505 22.981 4.68282 17.5989C-2.00196 5.44744 10.9616 -0.839471 16.5154 0.640282C15.439 0.223335 14.1282 0.177008 12.7438 0.435897L12.7411 0.438624Z" fill="#262626"/>
<path id="Vector_11" d="M18.3757 28.7258C21.4442 30.895 22.1746 31.4101 21.2044 31.8897C21.2153 31.887 21.2262 31.8842 21.2344 31.8815C21.3843 31.8352 21.5533 31.778 21.7195 31.7235C21.8339 31.6853 21.9457 31.6444 22.0574 31.6036C23.4309 30.9659 22.2345 30.0829 19.3731 27.9764C16.2092 25.6464 12.2687 22.7468 8.92766 18.5065C-0.937363 5.9872 9.59259 -0.209776 16.509 0.643194C8.64969 -1.06002 -8.26255 9.90596 18.373 28.7258H18.3757Z" fill="#262626"/>
<path id="Vector_12" d="M20.1783 26.2894C23.7565 29.0337 25.0972 30.061 23.3204 31.0857C23.3341 31.0802 23.3477 31.0721 23.3613 31.0666C23.6584 30.9249 24.029 30.7287 24.3151 30.5843C25.6995 29.7749 25.1463 28.8347 24.3424 27.9409C20.9768 24.1993 16.5076 21.7194 13.0603 18.0704C1.96621 6.32504 9.40858 0.482328 16.5103 0.645837C9.27232 -0.0136479 -3.65031 8.02007 20.1783 26.2922V26.2894Z" fill="#262626"/>
<path id="Vector_13" d="M22.9438 24.0196C26.353 26.7502 27.5684 28.219 25.748 29.6961C26.0587 29.4781 26.4538 29.1674 26.7645 28.9303C26.9198 28.8022 27.0833 28.6632 27.2386 28.5242C28.653 27.2298 27.86 26.5294 18.3438 18.1469C4.54909 5.99821 10.7651 1.70883 15.2616 0.812256C11.1848 1.57257 -0.184484 5.4886 22.9438 24.0196Z" fill="#262626"/>
<path id="Vector_14" d="M16.33 0.656738C15.9948 0.686715 15.6351 0.738495 15.2617 0.812073C15.7413 0.722144 16.1174 0.675814 16.33 0.656738Z" fill="#262626"/>
<path id="Vector_15" d="M16.5107 0.643066C16.5107 0.643066 16.4344 0.648513 16.3281 0.656689C16.3881 0.651239 16.4508 0.645792 16.5107 0.643066Z" fill="#262626"/>
<path id="Vector_16" d="M22.3098 18.6728C27.9645 23.2238 30.0873 25.3058 28.2479 27.5677C28.2615 27.5541 28.2724 27.5432 28.2833 27.5295C28.5722 27.2189 28.921 26.8074 29.1935 26.494C29.1989 26.4858 29.2044 26.4804 29.2099 26.4722C30.8204 24.3629 29.2807 22.1419 22.6423 16.9832C5.32124 3.52647 14.4968 1.01389 16.5134 0.645996C15.0446 0.831306 2.72962 2.91604 22.3125 18.6728H22.3098Z" fill="#262626"/>
<path id="Vector_17" d="M23.48 15.0317C29.8786 19.8116 31.6391 22.2561 30.4427 24.7006C30.4918 24.6188 30.5381 24.5398 30.5845 24.4607L30.6281 24.3844C30.6608 24.3272 30.6907 24.2754 30.7207 24.2237L31.0859 23.5206C31.1295 23.4306 31.1731 23.3407 31.2167 23.2535C32.6447 19.9779 27.2325 16.0373 23.6408 13.4239C11.9363 4.90784 13.3043 1.77665 16.5118 0.648438C13.773 1.36243 8.96589 4.19658 23.48 15.0372V15.0317Z" fill="#262626"/>
<path id="Vector_18" d="M23.7897 11.3202C29.3762 15.2553 32.7227 17.8878 32.0278 21.1716C32.0605 21.0598 32.0959 20.9481 32.1259 20.8391C32.2376 20.4303 32.3494 19.9698 32.4393 19.6019C32.9189 16.329 29.5398 13.8328 23.9886 10.0366C20.3206 7.52678 13.4941 2.85588 16.5108 0.643066C11.78 2.85861 20.8193 9.22727 23.7897 11.3202Z" fill="#262626"/>
<path id="Vector_19" d="M24.2025 8.42628C30.4976 12.5113 32.6369 14.3644 32.7513 17.1767C32.754 17.1222 32.7595 17.065 32.7622 17.0105L32.7813 16.3237L32.7649 15.6588C32.7622 15.5825 32.7595 15.5089 32.754 15.4326C32.5115 12.4813 28.5791 10.0477 23.6057 6.97378C20.1067 4.81274 16.1416 2.36011 16.5149 0.645996C14.8771 2.37919 20.4909 6.01998 24.2053 8.42901L24.2025 8.42628Z" fill="#262626"/>
<path id="Vector_20" d="M23.7933 5.81831C29.5924 9.11029 31.7753 10.71 32.4702 13.1217C32.383 12.7048 32.2412 12.1761 32.1241 11.7292C32.0968 11.6365 32.0696 11.5466 32.0423 11.4539C31.0994 9.00129 27.941 7.24084 22.4553 4.35764C18.5774 2.31651 17.2993 1.51804 16.5117 0.645996C16.9641 1.94316 19.8282 3.57007 23.7933 5.82104V5.81831Z" fill="#262626"/>
<path id="Vector_21" d="M31.2131 9.32538C31.1886 9.27633 31.1668 9.22727 31.1422 9.17822L30.8125 8.52691L30.5918 8.13721C30.5509 8.06636 30.51 7.99551 30.4664 7.92465C29.7197 6.76374 28.368 5.89987 26.4332 4.88612C23.2366 3.21288 19.8084 2.08739 16.5137 0.643066C17.5411 1.2971 19.4296 2.1637 21.8195 3.26193C28.1609 6.17511 30.1149 7.43413 31.2158 9.32538H31.2131Z" fill="#262626"/>
<path id="Vector_22" d="M29.2354 6.15604C29.2054 6.11788 29.1782 6.08518 29.1455 6.0443C29.1264 6.01978 29.1073 5.99797 29.0855 5.97345C29.061 5.94347 29.0365 5.9135 29.012 5.88352C28.7721 5.60556 28.5024 5.30306 28.2871 5.06052C26.87 3.60802 22.9076 2.12282 16.5117 0.643066C26.2132 3.5508 28.0909 4.91337 29.2354 6.15604Z" fill="#262626"/>
<path id="Vector_23" d="M26.5757 3.50991C26.3386 3.32733 26.0797 3.13657 25.8562 2.97306C25.8099 2.94036 25.7636 2.91039 25.7173 2.87769C24.1775 1.90754 21.0845 1.15539 16.5117 0.643066C19.3568 1.06546 24.4446 2.01926 26.7773 3.67343C26.7092 3.6162 26.6411 3.56169 26.5757 3.50991Z" fill="#262626"/>
<path id="Vector_24" d="M20.1198 0.640415C20.4986 0.692193 20.8747 0.760321 21.2398 0.844801C21.8912 0.953806 21.9729 0.978337 22.4689 1.13912C22.4553 1.13367 22.4389 1.1255 22.4253 1.12277C22.1773 1.02467 21.8394 0.910205 21.5859 0.820275H21.5805C20.9837 0.62679 20.2833 0.602268 19.4712 0.569567C19.5094 0.572292 19.5448 0.577736 19.583 0.580461C19.1687 0.542309 18.7463 0.520508 18.3185 0.520508C17.6617 0.55321 17.5745 0.558666 16.5117 0.64587C18.2013 0.575017 18.9643 0.58864 20.1198 0.643143V0.640415ZM19.8064 0.602267C19.8827 0.610443 19.9563 0.61862 20.0326 0.62952C19.959 0.61862 19.8827 0.610443 19.8064 0.602267Z" fill="#262626"/>
</g>
</g>
</svg>
