<svg width="171" height="48" viewBox="0 0 171 48" fill="none" xmlns="http://www.w3.org/2000/svg">
<g id="Abstract Design" opacity="0.5">
<rect id="2" width="45" height="45" transform="matrix(4.37114e-08 1 1 -4.37114e-08 -9 3)" fill="#FF9E66"/>
<rect id="3" width="45" height="45" transform="matrix(-4.37114e-08 -1 -1 4.37114e-08 36 3)" fill="#FFBE99"/>
<g id="9">
<rect id="Rectangle 7" width="45" height="45" transform="matrix(4.37114e-08 1 1 -4.37114e-08 36 3)" fill="white"/>
<path id="Ellipse 13" d="M36 48C41.9095 48 47.7611 46.836 53.2208 44.5746C58.6804 42.3131 63.6412 38.9984 67.8198 34.8198C71.9984 30.6412 75.3131 25.6804 77.5746 20.2208C79.836 14.7611 81 8.90948 81 3L36 3.00001L36 48Z" fill="#FF9E66"/>
</g>
<g id="10">
<rect id="Rectangle 6" width="45" height="45" transform="matrix(-4.37114e-08 -1 -1 4.37114e-08 81 3)" fill="#FF9E66"/>
<path id="Ellipse 12" d="M36 -42C41.9095 -42 47.7611 -40.836 53.2208 -38.5746C58.6804 -36.3131 63.6412 -32.9984 67.8198 -28.8198C71.9984 -24.6412 75.3131 -19.6804 77.5746 -14.2208C79.836 -8.7611 81 -2.90948 81 3L36 3L36 -42Z" fill="#FFBE99"/>
</g>
<g id="16">
<rect id="Rectangle 6_2" width="45" height="45" transform="matrix(4.37114e-08 1 1 -4.37114e-08 81 3)" fill="white"/>
<path id="Ellipse 12_2" d="M126 48C120.091 48 114.239 46.836 108.779 44.5746C103.32 42.3131 98.3588 38.9984 94.1802 34.8198C90.0016 30.6412 86.6869 25.6804 84.4254 20.2208C82.164 14.7611 81 8.90948 81 3L126 3L126 48Z" fill="#FF9E66"/>
</g>
<rect id="17" width="45" height="45" transform="matrix(-4.37114e-08 -1 -1 4.37114e-08 126 3)" fill="#FF9E66"/>
<rect id="23" width="45" height="45" transform="matrix(4.37114e-08 1 1 -4.37114e-08 126 3)" fill="url(#paint0_linear_164_33519)"/>
<g id="24">
<rect id="Rectangle 8" width="45" height="45" transform="matrix(-4.37114e-08 -1 -1 4.37114e-08 171 3)" fill="url(#paint1_linear_164_33519)"/>
<rect id="Rectangle 9" width="45" height="22.5" transform="matrix(-4.37114e-08 -1 -1 4.37114e-08 171 3)" fill="url(#paint2_linear_164_33519)"/>
<path id="Ellipse 3" d="M126 -19.5C126 -7.07359 136.074 3 148.5 3L148.5 -42C136.074 -42 126 -31.9264 126 -19.5Z" fill="#FFBE99"/>
</g>
</g>
<defs>
<linearGradient id="paint0_linear_164_33519" x1="22.5" y1="0" x2="22.5" y2="45" gradientUnits="userSpaceOnUse">
<stop stop-color="#FF9E66"/>
<stop offset="1" stop-color="#FF9E66" stop-opacity="0"/>
</linearGradient>
<linearGradient id="paint1_linear_164_33519" x1="22.5" y1="0" x2="22.5" y2="45" gradientUnits="userSpaceOnUse">
<stop stop-color="#FF9E66" stop-opacity="0"/>
<stop offset="0.766167" stop-color="#FF9E66"/>
</linearGradient>
<linearGradient id="paint2_linear_164_33519" x1="22.5" y1="0" x2="22.5" y2="22.5" gradientUnits="userSpaceOnUse">
<stop stop-color="#FFBE99" stop-opacity="0"/>
<stop offset="1" stop-color="#FFBE99"/>
</linearGradient>
</defs>
</svg>
