<svg width="180" height="48" viewBox="0 0 180 48" fill="none" xmlns="http://www.w3.org/2000/svg">
<g id="Abstract Design" opacity="0.5">
<rect id="2" x="180" y="3" width="45" height="45" transform="rotate(90 180 3)" fill="#FF9E66"/>
<rect id="3" x="135" y="3" width="45" height="45" transform="rotate(-90 135 3)" fill="#FFBE99"/>
<g id="9">
<rect id="Rectangle 7" x="135" y="3" width="45" height="45" transform="rotate(90 135 3)" fill="white"/>
<path id="Ellipse 13" d="M135 48C129.091 48 123.239 46.836 117.779 44.5746C112.32 42.3131 107.359 38.9984 103.18 34.8198C99.0016 30.6412 95.6869 25.6804 93.4254 20.2208C91.164 14.7611 90 8.90948 90 3L135 3.00001L135 48Z" fill="#FF9E66"/>
</g>
<g id="10">
<rect id="Rectangle 6" x="90" y="3" width="45" height="45" transform="rotate(-90 90 3)" fill="#FF9E66"/>
<path id="Ellipse 12" d="M135 -42C129.091 -42 123.239 -40.836 117.779 -38.5746C112.32 -36.3131 107.359 -32.9984 103.18 -28.8198C99.0016 -24.6412 95.6869 -19.6804 93.4254 -14.2208C91.164 -8.7611 90 -2.90948 90 3L135 3L135 -42Z" fill="#FFBE99"/>
</g>
<g id="16">
<rect id="Rectangle 6_2" x="90" y="3" width="45" height="45" transform="rotate(90 90 3)" fill="white"/>
<path id="Ellipse 12_2" d="M45 48C50.9095 48 56.7611 46.836 62.2208 44.5746C67.6804 42.3131 72.6412 38.9984 76.8198 34.8198C80.9984 30.6412 84.3131 25.6804 86.5746 20.2208C88.836 14.7611 90 8.90948 90 3L45 3L45 48Z" fill="#FF9E66"/>
</g>
<rect id="17" x="45" y="3" width="45" height="45" transform="rotate(-90 45 3)" fill="#FF9E66"/>
<rect id="23" x="45" y="3" width="45" height="45" transform="rotate(90 45 3)" fill="url(#paint0_linear_164_33559)"/>
<g id="24">
<rect id="Rectangle 8" y="3" width="45" height="45" transform="rotate(-90 0 3)" fill="url(#paint1_linear_164_33559)"/>
<rect id="Rectangle 9" y="3" width="45" height="22.5" transform="rotate(-90 0 3)" fill="url(#paint2_linear_164_33559)"/>
<path id="Ellipse 3" d="M45 -19.5C45 -7.07359 34.9264 3 22.5 3L22.5 -42C34.9264 -42 45 -31.9264 45 -19.5Z" fill="#FFBE99"/>
</g>
</g>
<defs>
<linearGradient id="paint0_linear_164_33559" x1="67.5" y1="3" x2="67.5" y2="48" gradientUnits="userSpaceOnUse">
<stop stop-color="#FF9E66"/>
<stop offset="1" stop-color="#FF9E66" stop-opacity="0"/>
</linearGradient>
<linearGradient id="paint1_linear_164_33559" x1="22.5" y1="3" x2="22.5" y2="48" gradientUnits="userSpaceOnUse">
<stop stop-color="#FF9E66" stop-opacity="0"/>
<stop offset="0.766167" stop-color="#FF9E66"/>
</linearGradient>
<linearGradient id="paint2_linear_164_33559" x1="22.5" y1="3" x2="22.5" y2="25.5" gradientUnits="userSpaceOnUse">
<stop stop-color="#FFBE99" stop-opacity="0"/>
<stop offset="1" stop-color="#FFBE99"/>
</linearGradient>
</defs>
</svg>
