<svg width="51" height="26" viewBox="0 0 51 26" fill="none" xmlns="http://www.w3.org/2000/svg">
<g id="Abstract Design" opacity="0.9">
<g id="Group">
<path id="Vector" d="M16.9725 23.9343C17.0315 23.9554 17.0947 23.9765 17.158 24.0018C17.6048 24.1535 18.1612 24.3263 18.5869 24.457C19.0295 24.5835 19.6239 24.7226 20.0707 24.828C14.2579 23.4074 9.29659 20.225 5.33008 15.3606L6.44711 16.739C6.58621 16.8949 6.70845 17.034 6.82648 17.1605C7.23957 17.5904 7.72853 18.0878 8.22593 18.5684C8.53364 18.8508 8.91722 19.188 9.44834 19.6601C9.72233 19.8793 10.0427 20.1238 10.3715 20.3683C13.1915 22.4464 15.1178 23.2135 16.9767 23.9385L16.9725 23.9343Z" fill="#262626"/>
<path id="Vector_2" d="M2.01302 9.43413C6.63289 20.3431 18.2037 24.5204 22.2924 25.2075C22.3135 25.2075 22.3303 25.2117 22.3514 25.2159C22.5664 25.2412 22.8362 25.2707 23.0469 25.2918L23.4769 25.3297C23.4769 25.3297 23.4937 25.3297 23.498 25.3297C21.0869 25.1063 4.50421 20.2124 0.769531 5.15991C0.811683 5.38332 0.84962 5.60251 0.891773 5.80484C1.16998 6.85443 1.59571 8.22859 1.95401 9.27396C1.97508 9.32876 1.99616 9.37933 2.01302 9.43413Z" fill="#262626"/>
<path id="Vector_3" d="M24.9484 25.4057C25.0453 25.4057 25.138 25.4099 25.235 25.4099H25.2771C25.2771 25.4099 25.3109 25.4099 25.3235 25.4099C25.4331 25.4099 25.5385 25.4099 25.6481 25.4099C25.7408 25.4099 25.8335 25.4099 25.9136 25.4099C25.9179 25.4099 25.9221 25.4099 25.9263 25.4099C24.0126 25.3762 -3.36945 14.9983 1.05652 -6.08618C1.05652 -6.08618 1.05652 -6.08619 1.05652 -6.08198C0.904773 -5.48763 0.757241 -4.68674 0.630785 -4.08817C0.508543 -3.32101 0.407378 -2.28828 0.323074 -1.51689C-0.127954 17.3968 22.4445 25.1654 24.9484 25.4057Z" fill="#262626"/>
<path id="Vector_4" d="M3.51979 -12.1815C-7.60416 9.26549 23.5547 24.4065 27.2809 25.3465C27.3062 25.3465 27.3315 25.3465 27.3568 25.3423L27.5212 25.3297C27.5465 25.3297 27.5718 25.3255 27.6013 25.3212C27.791 25.3044 28.0186 25.2791 28.2125 25.2622C28.2378 25.2622 28.2631 25.258 28.2842 25.2538C23.8708 21.8985 18.5007 20.0691 14.2475 16.4609C12.1652 14.6947 7.28819 10.5596 4.43871 5.02921C-1.26448 -6.03573 3.81064 -13.092 6.30183 -16.127C6.21331 -16.0258 6.12901 -15.9246 6.0447 -15.8277L5.62318 -15.3261C4.96561 -14.4198 4.13521 -13.1763 3.54087 -12.2195C3.53244 -12.2068 3.52822 -12.1942 3.51979 -12.1815Z" fill="#262626"/>
<path id="Vector_5" d="M19.683 -24.3215C19.683 -24.3215 19.7125 -24.3299 19.7294 -24.3342C19.6914 -24.3257 19.645 -24.3173 19.6113 -24.3089C19.3331 -24.2456 18.9706 -24.1487 18.6966 -24.0728C18.1318 -23.9169 17.3857 -23.685 16.8377 -23.4785C16.5005 -23.352 16.0537 -23.1834 15.7249 -23.0443C15.3287 -22.8757 14.8102 -22.6312 14.4182 -22.45C14.0177 -22.2645 13.4993 -21.9905 13.1199 -21.7671C12.6731 -21.5057 12.1209 -21.1643 11.6319 -20.8482C6.59475 -17.3833 2.6198 -11.8234 3.16778 -5.55538C4.46606 9.23159 21.2131 19.3734 27.5149 23.1924C28.9705 24.0748 29.7405 24.6874 29.8248 25.0302C29.8248 25.0302 29.8543 25.026 29.8669 25.0218C30.2126 24.9586 30.6468 24.8658 30.9924 24.7942C31.005 24.7942 31.0177 24.7899 31.0303 24.7857C31.1526 24.7436 31.2411 24.5665 31.3254 24.4654C31.0388 23.9132 30.4781 23.5169 27.4474 21.5316C19.6493 16.4227 11.8005 10.5467 7.2186 2.22169C-3.12132 -16.5739 16.9305 -26.2984 25.5211 -24.0096C23.856 -24.6545 21.8285 -24.7262 19.6872 -24.3257L19.683 -24.3215Z" fill="#262626"/>
<path id="Vector_6" d="M28.4008 19.4325C33.1472 22.7878 34.2768 23.5845 32.7762 24.3264C32.7931 24.3222 32.81 24.318 32.8226 24.3137C33.0544 24.2421 33.3158 24.1536 33.5729 24.0693C33.75 24.0102 33.9228 23.947 34.0956 23.8838C36.2201 22.8974 34.3696 21.5317 29.9436 18.2733C25.0497 14.6693 18.9546 10.1843 13.7867 3.62547C-1.47237 -15.7392 14.8152 -25.3246 25.5134 -24.0053C13.3567 -26.6398 -12.8029 -9.67775 28.3966 19.4325H28.4008Z" fill="#262626"/>
<path id="Vector_7" d="M31.19 15.664C36.7246 19.9087 38.7985 21.4978 36.0502 23.0828C36.0712 23.0743 36.0923 23.0617 36.1134 23.0533C36.5729 22.8341 37.1461 22.5306 37.5887 22.3072C39.7301 21.0552 38.8744 19.601 37.6309 18.2184C32.4251 12.4309 25.5121 8.59507 20.1799 2.9509C3.01976 -15.2167 14.5315 -24.2541 25.5164 -24.0012C14.3207 -25.0213 -5.6678 -12.5948 31.19 15.6682V15.664Z" fill="#262626"/>
<path id="Vector_8" d="M35.4694 12.1529C40.7426 16.3765 42.6226 18.6485 39.8068 20.9332C40.2874 20.5959 40.8986 20.1154 41.3791 19.7487C41.6194 19.5506 41.8723 19.3356 42.1126 19.1206C44.3003 17.1184 43.0736 16.0351 28.3541 3.06909C7.01669 -15.7223 16.6316 -22.3571 23.5867 -23.7439C17.2807 -22.5679 -0.305133 -16.5106 35.4694 12.1529Z" fill="#262626"/>
<path id="Vector_9" d="M34.4864 3.88266C43.233 10.9221 46.5166 14.1425 43.6714 17.6411C43.6925 17.62 43.7093 17.6032 43.7262 17.5821C44.173 17.1016 44.7125 16.4651 45.1341 15.9803C45.1425 15.9677 45.1509 15.9592 45.1593 15.9466C47.6505 12.684 45.2689 9.24862 35.0007 1.26922C8.20879 -19.5455 22.4014 -23.4319 25.5207 -24.001C23.2487 -23.7143 4.20012 -20.4897 34.4906 3.88266H34.4864Z" fill="#262626"/>
<path id="Vector_10" d="M36.2963 -1.74893C46.1936 5.64455 48.9167 9.42561 47.0662 13.2066C47.142 13.0802 47.2137 12.958 47.2854 12.8357L47.3528 12.7177C47.4034 12.6292 47.4498 12.5491 47.4961 12.469L48.061 11.3815C48.1284 11.2424 48.1959 11.1033 48.2633 10.9684C50.4721 5.90169 42.1007 -0.193514 36.545 -4.2359C18.4407 -17.4084 20.5567 -22.2517 25.518 -23.9968C21.2817 -22.8924 13.8461 -18.5086 36.2963 -1.74049V-1.74893Z" fill="#262626"/>
<path id="Vector_11" d="M36.7765 -7.48992C45.4177 -1.40316 50.594 2.66874 49.5191 7.74807C49.5697 7.57525 49.6245 7.40244 49.6708 7.23383C49.8437 6.60154 50.0165 5.88917 50.1556 5.32012C50.8975 0.257645 45.6706 -3.60349 37.0842 -9.47529C31.4105 -13.3575 20.8514 -20.5824 25.5177 -24.0051C18.2 -20.5782 32.1819 -10.7272 36.7765 -7.48992Z" fill="#262626"/>
<path id="Vector_12" d="M37.4135 -11.9665C47.1506 -5.64794 50.4596 -2.78159 50.6366 1.56851C50.6408 1.4842 50.6493 1.39568 50.6535 1.31137L50.683 0.249144L50.6577 -0.779369C50.6535 -0.897396 50.6493 -1.01121 50.6408 -1.12924C50.2657 -5.69431 44.1831 -9.45849 36.4904 -14.2133C31.078 -17.5559 24.9449 -21.3496 25.5224 -24.001C22.989 -21.3201 31.6724 -15.6886 37.4177 -11.9623L37.4135 -11.9665Z" fill="#262626"/>
</g>
</g>
</svg>
