<svg width="100" height="100" viewBox="0 0 100 100" fill="none" xmlns="http://www.w3.org/2000/svg">
<g id="Abstract Design" clip-path="url(#clip0_164_36253)">
<g id="Group">
<path id="Vector" d="M0 12.4979L12.4979 0H24.9957V12.4979L12.4979 24.9957H0V12.4979Z" fill="#FFBE99"/>
<path id="Vector_2" d="M24.9959 0H12.498V12.4979H24.9959V0Z" fill="#262626"/>
</g>
<g id="Group_2">
<path id="Vector_3" d="M0 37.502L12.4979 24.9956H24.9957V37.502L12.4979 49.9999H0V37.502Z" fill="#FFBE99"/>
<path id="Vector_4" d="M24.9959 24.9956H12.498V37.4935H24.9959V24.9956Z" fill="#262626"/>
</g>
<g id="Group_3">
<path id="Vector_5" d="M0 62.4979L12.4979 50H24.9957V62.4979L12.4979 74.9957H0V62.4979Z" fill="#FFBE99"/>
<path id="Vector_6" d="M24.9959 50H12.498V62.4979H24.9959V50Z" fill="#262626"/>
</g>
<g id="Group_4">
<path id="Vector_7" d="M0 87.4935L12.4979 74.9956H24.9957V87.4935L12.4979 99.9999H0V87.4935Z" fill="#FFBE99"/>
<path id="Vector_8" d="M24.9959 74.9956H12.498V87.4935H24.9959V74.9956Z" fill="#262626"/>
</g>
<g id="Group_5">
<path id="Vector_9" d="M24.9961 12.4979L37.5025 0H50.0004V12.4979L37.5025 24.9957H24.9961V12.4979Z" fill="#FFBE99"/>
<path id="Vector_10" d="M49.9998 0H37.502V12.4979H49.9998V0Z" fill="#262626"/>
</g>
<g id="Group_6">
<path id="Vector_11" d="M24.9961 37.502L37.5025 24.9956H50.0004V37.502L37.5025 49.9999H24.9961V37.502Z" fill="#FFBE99"/>
<path id="Vector_12" d="M49.9998 24.9956H37.502V37.4935H49.9998V24.9956Z" fill="#262626"/>
</g>
<g id="Group_7">
<path id="Vector_13" d="M24.9961 62.4979L37.5025 50H50.0004V62.4979L37.5025 74.9957H24.9961V62.4979Z" fill="#FFBE99"/>
<path id="Vector_14" d="M49.9998 50H37.502V62.4979H49.9998V50Z" fill="#262626"/>
</g>
<g id="Group_8">
<path id="Vector_15" d="M50 12.4979L62.4979 0H74.9957V12.4979L62.4979 24.9957H50V12.4979Z" fill="#FFBE99"/>
<path id="Vector_16" d="M74.9959 0H62.498V12.4979H74.9959V0Z" fill="#262626"/>
</g>
<g id="Group_9">
<path id="Vector_17" d="M74.9961 12.4979L87.4939 0H100V12.4979L87.4939 24.9957H74.9961V12.4979Z" fill="#FFBE99"/>
<path id="Vector_18" d="M99.992 0H87.4941V12.4979H99.992V0Z" fill="#262626"/>
</g>
<g id="Group_10">
<path id="Vector_19" d="M50 37.502L62.4979 24.9956H74.9957V37.502L62.4979 49.9999H50V37.502Z" fill="#FFBE99"/>
<path id="Vector_20" d="M74.9959 24.9956H62.498V37.4935H74.9959V24.9956Z" fill="#262626"/>
</g>
</g>
<defs>
<clipPath id="clip0_164_36253">
<rect width="100" height="100" fill="white"/>
</clipPath>
</defs>
</svg>
