<svg width="104" height="13" viewBox="0 0 104 13" fill="none" xmlns="http://www.w3.org/2000/svg">
<g id="Text Button">
<path d="M0.984863 12.625V1.25005H2.85361V12.625H0.984863ZM2.26861 12.625V10.9188H8.21611V12.625H2.26861Z" fill="#262626"/>
<path d="M9.69169 12.625V4.82505H11.4792V12.625H9.69169ZM10.5854 3.39505C10.2821 3.39505 10.0275 3.29213 9.82169 3.0863C9.62669 2.88047 9.52919 2.62588 9.52919 2.32255C9.52919 2.01922 9.62669 1.76463 9.82169 1.5588C10.0275 1.35297 10.2821 1.25005 10.5854 1.25005C10.8996 1.25005 11.1542 1.35297 11.3492 1.5588C11.5442 1.76463 11.6417 2.01922 11.6417 2.32255C11.6417 2.62588 11.5442 2.88047 11.3492 3.0863C11.1542 3.29213 10.8996 3.39505 10.5854 3.39505Z" fill="#262626"/>
<path d="M14.6703 12.625V1.57505H16.4578V12.625H14.6703ZM12.8015 6.45005V4.82505H23.039V6.45005H12.8015ZM19.3828 12.625V1.57505H21.1703V12.625H19.3828Z" fill="#262626"/>
<path d="M24.3385 12.625V0.925049H26.126V12.625H24.3385Z" fill="#262626"/>
<path d="M31.7391 12.7875C30.9591 12.7875 30.255 12.6142 29.6266 12.2675C29.0091 11.91 28.5162 11.4225 28.1479 10.805C27.7904 10.1875 27.6116 9.49422 27.6116 8.72505C27.6116 7.95588 27.7904 7.26797 28.1479 6.6613C28.5054 6.0438 28.9875 5.5563 29.5941 5.1988C30.2116 4.8413 30.8941 4.66255 31.6416 4.66255C32.3675 4.66255 33.0066 4.83047 33.5591 5.1663C34.1225 5.50213 34.5612 5.96255 34.8754 6.54755C35.2004 7.13255 35.3629 7.7988 35.3629 8.5463C35.3629 8.6763 35.3521 8.81172 35.3304 8.95255C35.3195 9.08255 35.2979 9.2288 35.2654 9.3913H28.8629V7.9288H34.3391L33.6729 8.5138C33.6512 8.03713 33.5591 7.6363 33.3966 7.3113C33.2341 6.9863 33.0012 6.73713 32.6979 6.5638C32.4054 6.39047 32.0425 6.3038 31.6091 6.3038C31.1541 6.3038 30.7587 6.4013 30.4229 6.5963C30.087 6.7913 29.827 7.06755 29.6429 7.42505C29.4587 7.77172 29.3666 8.1888 29.3666 8.6763C29.3666 9.1638 29.4641 9.59172 29.6591 9.96005C29.8541 10.3284 30.1304 10.6155 30.4879 10.8213C30.8454 11.0163 31.257 11.1138 31.7229 11.1138C32.1237 11.1138 32.4921 11.0434 32.8279 10.9025C33.1745 10.7617 33.4671 10.5559 33.7054 10.285L34.8429 11.4388C34.4637 11.883 34.0033 12.2188 33.4616 12.4463C32.92 12.6738 32.3458 12.7875 31.7391 12.7875Z" fill="#262626"/>
<path d="M40.2927 12.625V1.25005H42.1615V12.625H40.2927ZM41.5765 12.625V10.9188H47.524V12.625H41.5765Z" fill="#262626"/>
<path d="M52.3373 12.7875C51.5573 12.7875 50.8531 12.6142 50.2248 12.2675C49.6073 11.91 49.1144 11.4225 48.746 10.805C48.3885 10.1875 48.2098 9.49422 48.2098 8.72505C48.2098 7.95588 48.3885 7.26797 48.746 6.6613C49.1035 6.0438 49.5856 5.5563 50.1923 5.1988C50.8098 4.8413 51.4923 4.66255 52.2398 4.66255C52.9656 4.66255 53.6048 4.83047 54.1573 5.1663C54.7206 5.50213 55.1594 5.96255 55.4735 6.54755C55.7985 7.13255 55.961 7.7988 55.961 8.5463C55.961 8.6763 55.9502 8.81172 55.9285 8.95255C55.9177 9.08255 55.896 9.2288 55.8635 9.3913H49.461V7.9288H54.9373L54.271 8.5138C54.2494 8.03713 54.1573 7.6363 53.9948 7.3113C53.8323 6.9863 53.5994 6.73713 53.296 6.5638C53.0035 6.39047 52.6406 6.3038 52.2073 6.3038C51.7523 6.3038 51.3569 6.4013 51.021 6.5963C50.6852 6.7913 50.4252 7.06755 50.241 7.42505C50.0569 7.77172 49.9648 8.1888 49.9648 8.6763C49.9648 9.1638 50.0623 9.59172 50.2573 9.96005C50.4523 10.3284 50.7285 10.6155 51.086 10.8213C51.4435 11.0163 51.8552 11.1138 52.321 11.1138C52.7219 11.1138 53.0902 11.0434 53.426 10.9025C53.7727 10.7617 54.0652 10.5559 54.3035 10.285L55.441 11.4388C55.0619 11.883 54.6014 12.2188 54.0598 12.4463C53.5181 12.6738 52.944 12.7875 52.3373 12.7875Z" fill="#262626"/>
<path d="M60.6602 12.7875C59.956 12.7875 59.3169 12.6088 58.7427 12.2513C58.1794 11.8938 57.7298 11.4117 57.394 10.805C57.069 10.1875 56.9065 9.49963 56.9065 8.7413C56.9065 7.97213 57.069 7.28422 57.394 6.67755C57.7298 6.06005 58.1794 5.57255 58.7427 5.21505C59.3169 4.84672 59.956 4.66255 60.6602 4.66255C61.256 4.66255 61.7815 4.79255 62.2365 5.05255C62.7023 5.30172 63.0706 5.64838 63.3414 6.09255C63.6123 6.53672 63.7477 7.04047 63.7477 7.6038V9.8463C63.7477 10.4096 63.6123 10.9134 63.3414 11.3575C63.0815 11.8017 62.7185 12.1538 62.2527 12.4138C61.7869 12.663 61.256 12.7875 60.6602 12.7875ZM60.9527 11.0975C61.6135 11.0975 62.1444 10.8755 62.5452 10.4313C62.9569 9.98713 63.1627 9.41838 63.1627 8.72505C63.1627 8.25922 63.0706 7.84755 62.8865 7.49005C62.7023 7.13255 62.4423 6.8563 62.1065 6.6613C61.7815 6.45547 61.3969 6.35255 60.9527 6.35255C60.5194 6.35255 60.1348 6.45547 59.799 6.6613C59.4739 6.8563 59.214 7.13255 59.019 7.49005C58.8348 7.84755 58.7427 8.25922 58.7427 8.72505C58.7427 9.19088 58.8348 9.60255 59.019 9.96005C59.214 10.3175 59.4739 10.5992 59.799 10.805C60.1348 11 60.5194 11.0975 60.9527 11.0975ZM63.049 12.625V10.5288L63.3577 8.62755L63.049 6.74255V4.82505H64.8365V12.625H63.049Z" fill="#262626"/>
<path d="M66.8202 12.625V4.82505H68.6077V12.625H66.8202ZM68.6077 8.2863L67.9902 7.97755C67.9902 6.99172 68.2069 6.19547 68.6402 5.5888C69.0844 4.9713 69.7506 4.66255 70.639 4.66255C71.029 4.66255 71.3811 4.73297 71.6952 4.8738C72.0094 5.01463 72.3019 5.24213 72.5727 5.5563L71.4027 6.7588C71.2619 6.60713 71.1048 6.4988 70.9315 6.4338C70.7581 6.3688 70.5577 6.3363 70.3302 6.3363C69.8319 6.3363 69.4202 6.49338 69.0952 6.80755C68.7702 7.12172 68.6077 7.61463 68.6077 8.2863Z" fill="#262626"/>
<path d="M78.7839 12.625V8.1238C78.7839 7.6038 78.616 7.17588 78.2802 6.84005C77.9552 6.50422 77.5327 6.3363 77.0127 6.3363C76.666 6.3363 76.3572 6.41213 76.0864 6.5638C75.8156 6.71547 75.6043 6.92672 75.4527 7.19755C75.301 7.46838 75.2252 7.77713 75.2252 8.1238L74.5264 7.7338C74.5264 7.13797 74.6564 6.61255 74.9164 6.15755C75.1764 5.69172 75.5339 5.3288 75.9889 5.0688C76.4547 4.79797 76.9747 4.66255 77.5489 4.66255C78.1339 4.66255 78.6539 4.81422 79.1089 5.11755C79.5639 5.41005 79.9214 5.79463 80.1814 6.2713C80.4414 6.73713 80.5714 7.22463 80.5714 7.7338V12.625H78.7839ZM73.4377 12.625V4.82505H75.2252V12.625H73.4377Z" fill="#262626"/>
<path d="M86.0116 12.7875C85.2316 12.7875 84.5274 12.6142 83.8991 12.2675C83.2816 11.91 82.7887 11.4225 82.4203 10.805C82.0629 10.1875 81.8841 9.49422 81.8841 8.72505C81.8841 7.95588 82.0629 7.26797 82.4203 6.6613C82.7779 6.0438 83.2599 5.5563 83.8666 5.1988C84.4841 4.8413 85.1666 4.66255 85.9141 4.66255C86.6399 4.66255 87.2791 4.83047 87.8316 5.1663C88.3949 5.50213 88.8337 5.96255 89.1479 6.54755C89.4729 7.13255 89.6354 7.7988 89.6354 8.5463C89.6354 8.6763 89.6245 8.81172 89.6029 8.95255C89.592 9.08255 89.5704 9.2288 89.5378 9.3913H83.1354V7.9288H88.6116L87.9454 8.5138C87.9237 8.03713 87.8316 7.6363 87.6691 7.3113C87.5066 6.9863 87.2737 6.73713 86.9704 6.5638C86.6778 6.39047 86.3149 6.3038 85.8816 6.3038C85.4266 6.3038 85.0312 6.4013 84.6954 6.5963C84.3595 6.7913 84.0995 7.06755 83.9154 7.42505C83.7312 7.77172 83.6391 8.1888 83.6391 8.6763C83.6391 9.1638 83.7366 9.59172 83.9316 9.96005C84.1266 10.3284 84.4029 10.6155 84.7604 10.8213C85.1179 11.0163 85.5295 11.1138 85.9954 11.1138C86.3962 11.1138 86.7645 11.0434 87.1004 10.9025C87.447 10.7617 87.7395 10.5559 87.9779 10.285L89.1154 11.4388C88.7362 11.883 88.2758 12.2188 87.7341 12.4463C87.1924 12.6738 86.6183 12.7875 86.0116 12.7875Z" fill="#262626"/>
<path d="M91.0683 12.625V4.82505H92.8558V12.625H91.0683ZM92.8558 8.2863L92.2383 7.97755C92.2383 6.99172 92.4549 6.19547 92.8883 5.5888C93.3324 4.9713 93.9987 4.66255 94.887 4.66255C95.277 4.66255 95.6291 4.73297 95.9433 4.8738C96.2574 5.01463 96.5499 5.24213 96.8208 5.5563L95.6508 6.7588C95.5099 6.60713 95.3529 6.4988 95.1795 6.4338C95.0062 6.3688 94.8058 6.3363 94.5783 6.3363C94.0799 6.3363 93.6683 6.49338 93.3433 6.80755C93.0183 7.12172 92.8558 7.61463 92.8558 8.2863Z" fill="#262626"/>
<path d="M100.062 12.7875C99.6291 12.7875 99.212 12.7334 98.8111 12.625C98.4103 12.5059 98.042 12.3434 97.7061 12.1375C97.3703 11.9209 97.0778 11.6609 96.8286 11.3575L97.9661 10.22C98.237 10.5342 98.5457 10.7725 98.8924 10.935C99.2499 11.0867 99.6507 11.1625 100.095 11.1625C100.496 11.1625 100.799 11.103 101.005 10.9838C101.211 10.8646 101.314 10.6913 101.314 10.4638C101.314 10.2255 101.216 10.0413 101.021 9.9113C100.826 9.7813 100.572 9.67297 100.257 9.5863C99.9541 9.4888 99.6291 9.3913 99.2824 9.2938C98.9466 9.1963 98.6216 9.0663 98.3074 8.9038C98.0041 8.73047 97.7549 8.49755 97.5599 8.20505C97.3649 7.91255 97.2674 7.53338 97.2674 7.06755C97.2674 6.56922 97.3811 6.1413 97.6086 5.7838C97.847 5.4263 98.1774 5.15005 98.5999 4.95505C99.0332 4.76005 99.5478 4.66255 100.144 4.66255C100.772 4.66255 101.324 4.7763 101.801 5.0038C102.289 5.22047 102.695 5.55088 103.02 5.99505L101.882 7.13255C101.655 6.85088 101.395 6.63963 101.102 6.4988C100.81 6.35797 100.474 6.28755 100.095 6.28755C99.7374 6.28755 99.4611 6.34172 99.2661 6.45005C99.0711 6.55838 98.9736 6.71547 98.9736 6.9213C98.9736 7.13797 99.0711 7.30588 99.2661 7.42505C99.4611 7.54422 99.7103 7.64713 100.014 7.7338C100.328 7.82047 100.653 7.91797 100.989 8.0263C101.335 8.1238 101.66 8.26463 101.964 8.4488C102.278 8.62213 102.532 8.86047 102.727 9.1638C102.922 9.4563 103.02 9.84088 103.02 10.3175C103.02 11.0759 102.754 11.6771 102.224 12.1213C101.693 12.5655 100.972 12.7875 100.062 12.7875Z" fill="#262626"/>
</g>
</svg>
