<svg width="137" height="17" viewBox="0 0 137 17" fill="none" xmlns="http://www.w3.org/2000/svg">
<path d="M0.300781 16.5V1.33336H2.79245V16.5H0.300781ZM2.01245 16.5V14.225H9.94245V16.5H2.01245Z" fill="#262626"/>
<path d="M11.9099 16.5V6.10003H14.2932V16.5H11.9099ZM13.1016 4.19336C12.6971 4.19336 12.3577 4.05614 12.0832 3.78169C11.8232 3.50725 11.6932 3.1678 11.6932 2.76336C11.6932 2.35891 11.8232 2.01947 12.0832 1.74502C12.3577 1.47058 12.6971 1.33336 13.1016 1.33336C13.5204 1.33336 13.8599 1.47058 14.1199 1.74502C14.3799 2.01947 14.5099 2.35891 14.5099 2.76336C14.5099 3.1678 14.3799 3.50725 14.1199 3.78169C13.8599 4.05614 13.5204 4.19336 13.1016 4.19336Z" fill="#262626"/>
<path d="M18.548 16.5V1.76669H20.9313V16.5H18.548ZM16.0563 8.26669V6.10003H29.7063V8.26669H16.0563ZM24.8313 16.5V1.76669H27.2147V16.5H24.8313Z" fill="#262626"/>
<path d="M31.439 16.5V0.900024H33.8223V16.5H31.439Z" fill="#262626"/>
<path d="M41.3065 16.7167C40.2665 16.7167 39.3276 16.4856 38.4898 16.0234C37.6665 15.5467 37.0093 14.8967 36.5181 14.0734C36.0415 13.25 35.8031 12.3256 35.8031 11.3C35.8031 10.2745 36.0415 9.35725 36.5181 8.54836C36.9948 7.72503 37.6376 7.07503 38.4465 6.59836C39.2698 6.12169 40.1798 5.88336 41.1765 5.88336C42.1442 5.88336 42.9965 6.10725 43.7331 6.55503C44.4842 7.0028 45.0692 7.61669 45.4881 8.39669C45.9215 9.17669 46.1381 10.065 46.1381 11.0617C46.1381 11.235 46.1237 11.4156 46.0948 11.6034C46.0804 11.7767 46.0515 11.9717 46.0081 12.1884H37.4715V10.2384H44.7731L43.8848 11.0184C43.8559 10.3828 43.7331 9.84836 43.5165 9.41502C43.2998 8.98169 42.9893 8.64947 42.5848 8.41836C42.1948 8.18725 41.7109 8.07169 41.1331 8.07169C40.5265 8.07169 39.9992 8.20169 39.5515 8.46169C39.1037 8.72169 38.757 9.09003 38.5115 9.56669C38.2659 10.0289 38.1431 10.585 38.1431 11.235C38.1431 11.885 38.2731 12.4556 38.5331 12.9467C38.7931 13.4378 39.1615 13.8206 39.6381 14.095C40.1148 14.355 40.6637 14.485 41.2848 14.485C41.8193 14.485 42.3104 14.3911 42.7581 14.2034C43.2204 14.0156 43.6104 13.7411 43.9281 13.38L45.4448 14.9184C44.9393 15.5106 44.3254 15.9584 43.6031 16.2617C42.8809 16.565 42.1154 16.7167 41.3065 16.7167Z" fill="#262626"/>
<path d="M52.7113 16.5V1.33336H55.2029V16.5H52.7113ZM54.4229 16.5V14.225H62.3529V16.5H54.4229Z" fill="#262626"/>
<path d="M68.7707 16.7167C67.7307 16.7167 66.7918 16.4856 65.954 16.0234C65.1307 15.5467 64.4734 14.8967 63.9823 14.0734C63.5057 13.25 63.2673 12.3256 63.2673 11.3C63.2673 10.2745 63.5057 9.35725 63.9823 8.54836C64.459 7.72503 65.1018 7.07503 65.9107 6.59836C66.734 6.12169 67.644 5.88336 68.6407 5.88336C69.6085 5.88336 70.4607 6.10725 71.1973 6.55503C71.9484 7.0028 72.5334 7.61669 72.9523 8.39669C73.3857 9.17669 73.6023 10.065 73.6023 11.0617C73.6023 11.235 73.5879 11.4156 73.559 11.6034C73.5446 11.7767 73.5157 11.9717 73.4723 12.1884H64.9357V10.2384H72.2373L71.349 11.0184C71.3201 10.3828 71.1973 9.84836 70.9807 9.41502C70.764 8.98169 70.4534 8.64947 70.049 8.41836C69.659 8.18725 69.1751 8.07169 68.5973 8.07169C67.9907 8.07169 67.4634 8.20169 67.0157 8.46169C66.5679 8.72169 66.2212 9.09003 65.9757 9.56669C65.7301 10.0289 65.6073 10.585 65.6073 11.235C65.6073 11.885 65.7373 12.4556 65.9973 12.9467C66.2573 13.4378 66.6257 13.8206 67.1023 14.095C67.579 14.355 68.1279 14.485 68.749 14.485C69.2834 14.485 69.7746 14.3911 70.2223 14.2034C70.6846 14.0156 71.0746 13.7411 71.3923 13.38L72.909 14.9184C72.4034 15.5106 71.7896 15.9584 71.0673 16.2617C70.3451 16.565 69.5796 16.7167 68.7707 16.7167Z" fill="#262626"/>
<path d="M79.8679 16.7167C78.929 16.7167 78.0768 16.4784 77.3112 16.0017C76.5601 15.525 75.9607 14.8822 75.5129 14.0734C75.0796 13.25 74.8629 12.3328 74.8629 11.3217C74.8629 10.2961 75.0796 9.37891 75.5129 8.57002C75.9607 7.74669 76.5601 7.09669 77.3112 6.62002C78.0768 6.12891 78.929 5.88336 79.8679 5.88336C80.6623 5.88336 81.3629 6.05669 81.9696 6.40336C82.5907 6.73558 83.0818 7.1978 83.4429 7.79003C83.804 8.38225 83.9846 9.05391 83.9846 9.80503V12.795C83.9846 13.5461 83.804 14.2178 83.4429 14.81C83.0962 15.4022 82.6123 15.8717 81.9912 16.2184C81.3701 16.5506 80.6623 16.7167 79.8679 16.7167ZM80.2579 14.4634C81.139 14.4634 81.8468 14.1672 82.3812 13.575C82.9301 12.9828 83.2046 12.2245 83.2046 11.3C83.2046 10.6789 83.0818 10.13 82.8362 9.65336C82.5907 9.17669 82.244 8.80836 81.7962 8.54836C81.3629 8.27391 80.8501 8.13669 80.2579 8.13669C79.6801 8.13669 79.1673 8.27391 78.7196 8.54836C78.2862 8.80836 77.9396 9.17669 77.6796 9.65336C77.434 10.13 77.3112 10.6789 77.3112 11.3C77.3112 11.9211 77.434 12.47 77.6796 12.9467C77.9396 13.4234 78.2862 13.7989 78.7196 14.0734C79.1673 14.3334 79.6801 14.4634 80.2579 14.4634ZM83.0529 16.5V13.705L83.4646 11.17L83.0529 8.65669V6.10003H85.4362V16.5H83.0529Z" fill="#262626"/>
<path d="M88.0813 16.5V6.10003H90.4646V16.5H88.0813ZM90.4646 10.715L89.6413 10.3034C89.6413 8.98891 89.9301 7.92725 90.5079 7.11836C91.1001 6.29502 91.9885 5.88336 93.1729 5.88336C93.6929 5.88336 94.1624 5.97725 94.5813 6.16502C95.0001 6.3528 95.3901 6.65614 95.7513 7.07502L94.1913 8.67836C94.0035 8.47614 93.794 8.33169 93.5629 8.24503C93.3318 8.15836 93.0646 8.11503 92.7613 8.11503C92.0968 8.11503 91.5479 8.32447 91.1146 8.74336C90.6813 9.16225 90.4646 9.81947 90.4646 10.715Z" fill="#262626"/>
<path d="M104.033 16.5V10.4984C104.033 9.80503 103.809 9.23447 103.361 8.78669C102.928 8.33891 102.365 8.11503 101.671 8.11503C101.209 8.11503 100.797 8.21614 100.436 8.41836C100.075 8.62058 99.7934 8.90225 99.5912 9.26336C99.3889 9.62447 99.2878 10.0361 99.2878 10.4984L98.3562 9.97836C98.3562 9.18391 98.5295 8.48336 98.8762 7.87669C99.2228 7.25558 99.6995 6.77169 100.306 6.42502C100.927 6.06391 101.621 5.88336 102.386 5.88336C103.166 5.88336 103.86 6.08558 104.466 6.49002C105.073 6.88002 105.55 7.3928 105.896 8.02836C106.243 8.64947 106.416 9.29947 106.416 9.97836V16.5H104.033ZM96.9045 16.5V6.10003H99.2878V16.5H96.9045Z" fill="#262626"/>
<path d="M113.67 16.7167C112.63 16.7167 111.691 16.4856 110.853 16.0234C110.03 15.5467 109.373 14.8967 108.881 14.0734C108.405 13.25 108.166 12.3256 108.166 11.3C108.166 10.2745 108.405 9.35725 108.881 8.54836C109.358 7.72503 110.001 7.07503 110.81 6.59836C111.633 6.12169 112.543 5.88336 113.54 5.88336C114.508 5.88336 115.36 6.10725 116.096 6.55503C116.848 7.0028 117.433 7.61669 117.851 8.39669C118.285 9.17669 118.501 10.065 118.501 11.0617C118.501 11.235 118.487 11.4156 118.458 11.6034C118.444 11.7767 118.415 11.9717 118.371 12.1884H109.835V10.2384H117.136L116.248 11.0184C116.219 10.3828 116.096 9.84836 115.88 9.41502C115.663 8.98169 115.353 8.64947 114.948 8.41836C114.558 8.18725 114.074 8.07169 113.496 8.07169C112.89 8.07169 112.363 8.20169 111.915 8.46169C111.467 8.72169 111.12 9.09003 110.875 9.56669C110.629 10.0289 110.506 10.585 110.506 11.235C110.506 11.885 110.636 12.4556 110.896 12.9467C111.156 13.4378 111.525 13.8206 112.001 14.095C112.478 14.355 113.027 14.485 113.648 14.485C114.183 14.485 114.674 14.3911 115.121 14.2034C115.584 14.0156 115.974 13.7411 116.291 13.38L117.808 14.9184C117.303 15.5106 116.689 15.9584 115.966 16.2617C115.244 16.565 114.479 16.7167 113.67 16.7167Z" fill="#262626"/>
<path d="M120.412 16.5V6.10003H122.795V16.5H120.412ZM122.795 10.715L121.972 10.3034C121.972 8.98891 122.261 7.92725 122.839 7.11836C123.431 6.29502 124.319 5.88336 125.504 5.88336C126.024 5.88336 126.493 5.97725 126.912 6.16502C127.331 6.3528 127.721 6.65614 128.082 7.07502L126.522 8.67836C126.334 8.47614 126.125 8.33169 125.894 8.24503C125.663 8.15836 125.395 8.11503 125.092 8.11503C124.428 8.11503 123.879 8.32447 123.445 8.74336C123.012 9.16225 122.795 9.81947 122.795 10.715Z" fill="#262626"/>
<path d="M132.404 16.7167C131.826 16.7167 131.27 16.6445 130.736 16.5C130.201 16.3411 129.71 16.1245 129.262 15.85C128.815 15.5611 128.425 15.2145 128.092 14.81L129.609 13.2934C129.97 13.7122 130.382 14.03 130.844 14.2467C131.321 14.4489 131.855 14.55 132.447 14.55C132.982 14.55 133.386 14.4706 133.661 14.3117C133.935 14.1528 134.072 13.9217 134.072 13.6184C134.072 13.3006 133.942 13.055 133.682 12.8817C133.422 12.7084 133.083 12.5639 132.664 12.4484C132.26 12.3184 131.826 12.1884 131.364 12.0584C130.916 11.9284 130.483 11.755 130.064 11.5384C129.66 11.3072 129.327 10.9967 129.067 10.6067C128.807 10.2167 128.677 9.71114 128.677 9.09002C128.677 8.42558 128.829 7.85502 129.132 7.37836C129.45 6.90169 129.891 6.53336 130.454 6.27336C131.032 6.01336 131.718 5.88336 132.512 5.88336C133.35 5.88336 134.087 6.03503 134.722 6.33836C135.372 6.62725 135.914 7.0678 136.347 7.66003L134.831 9.17669C134.527 8.80114 134.181 8.51947 133.791 8.33169C133.401 8.14391 132.953 8.05002 132.447 8.05002C131.971 8.05002 131.602 8.12225 131.342 8.26669C131.082 8.41114 130.952 8.62058 130.952 8.89503C130.952 9.18391 131.082 9.4078 131.342 9.56669C131.602 9.72558 131.935 9.8628 132.339 9.97836C132.758 10.0939 133.191 10.2239 133.639 10.3684C134.101 10.4984 134.535 10.6861 134.939 10.9317C135.358 11.1628 135.697 11.4806 135.957 11.885C136.217 12.275 136.347 12.7878 136.347 13.4234C136.347 14.4345 135.994 15.2361 135.286 15.8284C134.578 16.4206 133.617 16.7167 132.404 16.7167Z" fill="#262626"/>
</svg>
