<svg xmlns="http://www.w3.org/2000/svg" width="25" height="24" viewBox="0 0 25 24" fill="none">
  <path d="M19.042 2.25C18.0065 2.25 17.167 3.08947 17.167 4.125V19.875C17.167 20.9105 18.0065 21.75 19.042 21.75H19.792C20.8275 21.75 21.667 20.9105 21.667 19.875V4.125C21.667 3.08947 20.8275 2.25 19.792 2.25H19.042Z" fill="#262626"/>
  <path d="M10.417 8.625C10.417 7.58947 11.2565 6.75 12.292 6.75H13.042C14.0775 6.75 14.917 7.58947 14.917 8.625V19.875C14.917 20.9105 14.0775 21.75 13.042 21.75H12.292C11.2565 21.75 10.417 20.9105 10.417 19.875V8.625Z" fill="#262626"/>
  <path d="M3.66699 13.125C3.66699 12.0895 4.50646 11.25 5.54199 11.25H6.29199C7.32753 11.25 8.16699 12.0895 8.16699 13.125V19.875C8.16699 20.9105 7.32753 21.75 6.29199 21.75H5.54199C4.50646 21.75 3.66699 20.9105 3.66699 19.875V13.125Z" fill="#262626"/>
</svg>