<svg xmlns="http://www.w3.org/2000/svg" width="51" height="50" viewBox="0 0 51 50" fill="none">
  <g clip-path="url(#clip0_164_32843)">
    <path d="M31.5887 30.3589C33.5528 33.9466 35.4699 37.4438 37.3837 40.9409C38.8027 43.5357 40.22 46.1321 41.6306 48.7302C42.1439 49.6745 41.9543 49.9966 40.8859 49.9966C30.8255 49.9999 20.7651 49.9999 10.7047 49.9966C9.72186 49.9966 9.50716 49.6628 9.96003 48.8326C13.4605 42.4152 16.9677 36.0013 20.4733 29.589C20.527 29.4917 20.6024 29.4079 20.7031 29.2686C21.5753 29.7752 22.0768 31.1774 23.2542 30.8084C24.1985 30.5115 24.9835 29.7098 26.0335 29.002C26.4897 29.4951 27.0751 30.161 27.6974 30.7899C29.0207 32.1284 29.7369 32.1284 31.067 30.8336C31.2046 30.6994 31.3505 30.5752 31.5887 30.3606V30.3589Z" fill="#262626"/>
    <path d="M28.5508 1.73438H42.8715C42.6652 2.03964 42.5528 2.24259 42.4052 2.41703C41.4844 3.50392 40.5484 4.57738 39.631 5.66594C38.8175 6.63206 38.8292 7.5596 39.6511 8.52908C40.696 9.75853 41.7477 10.9813 42.9218 12.3499H28.5508V1.73438Z" fill="#FF9E66"/>
    <path d="M7.75443 49.9363H0.637695C3.56457 44.7031 6.41093 39.6176 9.26064 34.522C10.4929 35.4478 11.8476 35.3768 13.3247 34.309C13.3499 34.3207 13.3801 34.3274 13.4002 34.3442C14.5139 35.2868 14.7225 36.3933 14.0258 37.6635C12.1791 41.0382 10.3173 44.4046 8.50418 47.796C8.16369 48.4334 8.01441 49.1731 7.75443 49.9346V49.9363Z" fill="#262626"/>
    <path d="M38.1706 34.1546C39.7014 35.4003 41.1053 35.5205 42.3822 34.5152C45.232 39.6125 48.075 44.6964 51.0002 49.9279H43.9086C43.6184 49.1328 43.4356 48.3529 43.0683 47.6686C41.0807 43.9584 39.0595 40.2667 37.0183 36.5867C36.7264 36.06 36.7013 35.7279 37.1877 35.3187C37.5651 35.0017 37.8368 34.5572 38.1706 34.153V34.1546Z" fill="#262626"/>
    <path d="M30.7233 28.7688C30.2754 29.1563 29.8544 29.5202 29.2993 30.0033C28.63 29.2938 27.9306 28.5139 27.1892 27.7742C26.2567 26.845 25.3576 26.8718 24.4318 27.8044C24.0242 28.2136 23.6099 28.6195 23.0463 29.1797C22.6488 28.7168 22.2412 28.2958 21.9091 27.8228C21.7884 27.6501 21.7431 27.2961 21.8387 27.1184C22.9239 25.0788 24.0309 23.0509 25.158 21.0332C25.5639 20.3069 26.1007 20.3304 26.5183 21.0885C27.9038 23.5977 29.2724 26.1153 30.7233 28.7705V28.7688Z" fill="#FF9E66"/>
    <path d="M26.6773 18.7605H24.933V17.9236C24.933 12.4187 24.933 6.91384 24.9346 1.41066C24.9346 1.13223 24.8726 0.795091 25.0034 0.590461C25.1762 0.323772 25.52 -0.0116853 25.775 5.56809e-05C26.0802 0.0151513 26.3989 0.335514 26.6488 0.587107C26.7545 0.692776 26.7109 0.961142 26.7109 1.15571C26.7142 6.85514 26.7126 12.5562 26.7109 18.2557C26.7109 18.4184 26.6891 18.5794 26.6757 18.7605H26.6773Z" fill="#FF9E66"/>
    <path d="M13.2713 27.4035C13.5682 27.858 13.7443 28.0962 13.8885 28.3528C14.6165 29.641 15.3327 30.9342 16.0573 32.2224C16.414 32.8575 16.3659 33.4764 15.913 34.0791C15.1381 33.5139 14.4353 32.7608 13.5715 32.432C12.5031 32.0278 11.9546 33.1751 11.1093 33.7973C10.8527 33.4619 10.6011 33.1348 10.2773 32.7104C11.2015 31.0717 12.1878 29.324 13.2713 27.4001V27.4035Z" fill="#262626"/>
    <path d="M41.4212 32.8178C41.1059 33.1633 40.8275 33.4669 40.5608 33.7588C39.0479 32.6696 37.4539 32.7993 35.7788 34.1479C35.2086 33.5675 35.0844 33.0006 35.5591 32.2425C36.3424 30.9895 37.0184 29.6712 37.7446 28.383C37.8906 28.1247 38.06 27.8799 38.3635 27.4001C38.9456 28.4166 39.437 29.2636 39.9184 30.1157C40.4115 30.9895 40.8963 31.8701 41.4212 32.8178Z" fill="#262626"/>
  </g>
  <defs>
    <clipPath id="clip0_164_32843">
      <rect width="50.3623" height="50" fill="white" transform="translate(0.637695)"/>
    </clipPath>
  </defs>
</svg>