<svg width="24" height="24" viewBox="0 0 24 24" fill="none" xmlns="http://www.w3.org/2000/svg">
<g id="Icon">
<path id="Vector (Stroke)" fill-rule="evenodd" clip-rule="evenodd" d="M18 12C18 12.497 17.5971 12.9 17.1 12.9H9.1345L11.7238 15.2512C12.0821 15.5957 12.0933 16.1655 11.7487 16.5238C11.4042 16.882 10.8345 16.8932 10.4762 16.5487L6.2762 12.6487C6.09973 12.479 6 12.2448 6 12C6 11.7551 6.09973 11.5209 6.2762 11.3512L10.4762 7.4512C10.8345 7.10669 11.4042 7.11786 11.7487 7.47615C12.0933 7.83445 12.0821 8.40419 11.7238 8.7487L9.1345 11.1L17.1 11.1C17.5971 11.1 18 11.5029 18 12Z" fill="#333333"/>
</g>
</svg>
