<svg width="24" height="24" viewBox="0 0 24 24" fill="none" xmlns="http://www.w3.org/2000/svg">
<g id="Icon">
<path id="Vector (Stroke)" fill-rule="evenodd" clip-rule="evenodd" d="M6 12C6 11.5029 6.40294 11.1 6.9 11.1H14.8655L12.2762 8.7487C11.9179 8.40419 11.9067 7.83445 12.2513 7.47615C12.5958 7.11786 13.1655 7.10669 13.5238 7.4512L17.7238 11.3512C17.9003 11.5209 18 11.7551 18 12C18 12.2448 17.9003 12.479 17.7238 12.6487L13.5238 16.5487C13.1655 16.8932 12.5958 16.882 12.2513 16.5238C11.9067 16.1655 11.9179 15.5957 12.2762 15.2512L14.8655 12.9H6.9C6.40294 12.9 6 12.497 6 12Z" fill="#333333"/>
</g>
</svg>
