<svg width="24" height="24" viewBox="0 0 24 24" fill="none" xmlns="http://www.w3.org/2000/svg">
<g id="Icon">
<path id="Vector (Stroke)" fill-rule="evenodd" clip-rule="evenodd" d="M3.59961 11.9999C3.59961 11.5029 4.00255 11.0999 4.49961 11.0999L17.2651 11.0999L12.2758 6.3487C11.9175 6.00418 11.9063 5.43445 12.2509 5.07615C12.5954 4.71786 13.1651 4.70669 13.5234 5.0512L20.1234 11.3512C20.2999 11.5209 20.3996 11.7551 20.3996 11.9999C20.3996 12.2448 20.2999 12.479 20.1234 12.6487L13.5234 18.9487C13.1651 19.2932 12.5954 19.282 12.2509 18.9237C11.9063 18.5655 11.9175 17.9957 12.2758 17.6512L17.2651 12.8999L4.49961 12.8999C4.00255 12.8999 3.59961 12.497 3.59961 11.9999Z" fill="#262626"/>
</g>
</svg>
