<svg width="24" height="24" viewBox="0 0 24 24" fill="none" xmlns="http://www.w3.org/2000/svg">
<g id="Icon">
<path id="Union" fill-rule="evenodd" clip-rule="evenodd" d="M20.5991 1.5C20.2237 1.5 19.8567 1.61111 19.5444 1.81934L14.4654 5.20533C13.1858 6.05835 12.0208 7.0624 10.9935 8.19218C13.1069 9.18391 14.8165 10.8935 15.8083 13.007C16.938 11.9797 17.9421 10.8146 18.7951 9.53508L22.1811 4.45609C22.3893 4.14375 22.5004 3.77677 22.5004 3.40139C22.5004 2.35128 21.6492 1.5 20.5991 1.5ZM12.3 15.5249C12.9573 15.1597 13.5902 14.7563 14.1959 14.3175C13.3841 12.258 11.7424 10.6164 9.68295 9.80456C9.2441 10.4102 8.84072 11.0432 8.47555 11.7005L8.19702 12.2018C9.93351 12.6985 11.302 14.0669 11.7986 15.8034L12.3 15.5249ZM6.75044 13.5C4.67935 13.5 3.00044 15.1789 3.00044 17.25C3.00044 18.0784 2.32887 18.75 1.50044 18.75C1.46648 18.75 1.43267 18.7489 1.39909 18.7466C1.12294 18.7284 0.85917 18.8637 0.712906 19.0986C0.566643 19.3336 0.561654 19.63 0.699929 19.8697C1.60573 21.4402 3.30386 22.5 5.25044 22.5C8.14995 22.5 10.5004 20.1495 10.5004 17.25C10.5004 15.1789 8.82153 13.5 6.75044 13.5Z" fill="#262626"/>
</g>
</svg>
