<svg width="104" height="13" viewBox="0 0 104 13" fill="none" xmlns="http://www.w3.org/2000/svg">
<g id="Text Button">
<path d="M0.984375 12.625V1.25005H2.85313V12.625H0.984375ZM2.26813 12.625V10.9188H8.21563V12.625H2.26813Z" fill="#262626"/>
<path d="M9.6912 12.625V4.82505H11.4787V12.625H9.6912ZM10.585 3.39505C10.2816 3.39505 10.027 3.29213 9.8212 3.0863C9.6262 2.88047 9.5287 2.62588 9.5287 2.32255C9.5287 2.01922 9.6262 1.76463 9.8212 1.5588C10.027 1.35297 10.2816 1.25005 10.585 1.25005C10.8991 1.25005 11.1537 1.35297 11.3487 1.5588C11.5437 1.76463 11.6412 2.01922 11.6412 2.32255C11.6412 2.62588 11.5437 2.88047 11.3487 3.0863C11.1537 3.29213 10.8991 3.39505 10.585 3.39505Z" fill="#262626"/>
<path d="M14.6698 12.625V1.57505H16.4573V12.625H14.6698ZM12.801 6.45005V4.82505H23.0385V6.45005H12.801ZM19.3823 12.625V1.57505H21.1698V12.625H19.3823Z" fill="#262626"/>
<path d="M24.338 12.625V0.925049H26.1255V12.625H24.338Z" fill="#262626"/>
<path d="M31.7386 12.7875C30.9586 12.7875 30.2545 12.6142 29.6261 12.2675C29.0086 11.91 28.5157 11.4225 28.1474 10.805C27.7899 10.1875 27.6111 9.49422 27.6111 8.72505C27.6111 7.95588 27.7899 7.26797 28.1474 6.6613C28.5049 6.0438 28.987 5.5563 29.5936 5.1988C30.2111 4.8413 30.8936 4.66255 31.6411 4.66255C32.367 4.66255 33.0061 4.83047 33.5586 5.1663C34.122 5.50213 34.5607 5.96255 34.8749 6.54755C35.1999 7.13255 35.3624 7.7988 35.3624 8.5463C35.3624 8.6763 35.3516 8.81172 35.3299 8.95255C35.3191 9.08255 35.2974 9.2288 35.2649 9.3913H28.8624V7.9288H34.3386L33.6724 8.5138C33.6507 8.03713 33.5586 7.6363 33.3961 7.3113C33.2336 6.9863 33.0007 6.73713 32.6974 6.5638C32.4049 6.39047 32.042 6.3038 31.6086 6.3038C31.1536 6.3038 30.7582 6.4013 30.4224 6.5963C30.0866 6.7913 29.8266 7.06755 29.6424 7.42505C29.4582 7.77172 29.3661 8.1888 29.3661 8.6763C29.3661 9.1638 29.4636 9.59172 29.6586 9.96005C29.8536 10.3284 30.1299 10.6155 30.4874 10.8213C30.8449 11.0163 31.2566 11.1138 31.7224 11.1138C32.1232 11.1138 32.4916 11.0434 32.8274 10.9025C33.1741 10.7617 33.4666 10.5559 33.7049 10.285L34.8424 11.4388C34.4632 11.883 34.0028 12.2188 33.4611 12.4463C32.9195 12.6738 32.3453 12.7875 31.7386 12.7875Z" fill="#262626"/>
<path d="M40.2922 12.625V1.25005H42.161V12.625H40.2922ZM41.576 12.625V10.9188H47.5235V12.625H41.576Z" fill="#262626"/>
<path d="M52.3368 12.7875C51.5568 12.7875 50.8526 12.6142 50.2243 12.2675C49.6068 11.91 49.1139 11.4225 48.7455 10.805C48.388 10.1875 48.2093 9.49422 48.2093 8.72505C48.2093 7.95588 48.388 7.26797 48.7455 6.6613C49.103 6.0438 49.5851 5.5563 50.1918 5.1988C50.8093 4.8413 51.4918 4.66255 52.2393 4.66255C52.9651 4.66255 53.6043 4.83047 54.1568 5.1663C54.7201 5.50213 55.1589 5.96255 55.473 6.54755C55.798 7.13255 55.9605 7.7988 55.9605 8.5463C55.9605 8.6763 55.9497 8.81172 55.928 8.95255C55.9172 9.08255 55.8955 9.2288 55.863 9.3913H49.4605V7.9288H54.9368L54.2705 8.5138C54.2489 8.03713 54.1568 7.6363 53.9943 7.3113C53.8318 6.9863 53.5989 6.73713 53.2955 6.5638C53.003 6.39047 52.6401 6.3038 52.2068 6.3038C51.7518 6.3038 51.3564 6.4013 51.0205 6.5963C50.6847 6.7913 50.4247 7.06755 50.2405 7.42505C50.0564 7.77172 49.9643 8.1888 49.9643 8.6763C49.9643 9.1638 50.0618 9.59172 50.2568 9.96005C50.4518 10.3284 50.728 10.6155 51.0855 10.8213C51.443 11.0163 51.8547 11.1138 52.3205 11.1138C52.7214 11.1138 53.0897 11.0434 53.4255 10.9025C53.7722 10.7617 54.0647 10.5559 54.303 10.285L55.4405 11.4388C55.0614 11.883 54.601 12.2188 54.0593 12.4463C53.5176 12.6738 52.9435 12.7875 52.3368 12.7875Z" fill="#262626"/>
<path d="M60.6597 12.7875C59.9556 12.7875 59.3164 12.6088 58.7422 12.2513C58.1789 11.8938 57.7293 11.4117 57.3935 10.805C57.0685 10.1875 56.906 9.49963 56.906 8.7413C56.906 7.97213 57.0685 7.28422 57.3935 6.67755C57.7293 6.06005 58.1789 5.57255 58.7422 5.21505C59.3164 4.84672 59.9556 4.66255 60.6597 4.66255C61.2556 4.66255 61.781 4.79255 62.236 5.05255C62.7018 5.30172 63.0701 5.64838 63.341 6.09255C63.6118 6.53672 63.7472 7.04047 63.7472 7.6038V9.8463C63.7472 10.4096 63.6118 10.9134 63.341 11.3575C63.081 11.8017 62.718 12.1538 62.2522 12.4138C61.7864 12.663 61.2556 12.7875 60.6597 12.7875ZM60.9522 11.0975C61.613 11.0975 62.1439 10.8755 62.5447 10.4313C62.9564 9.98713 63.1622 9.41838 63.1622 8.72505C63.1622 8.25922 63.0701 7.84755 62.886 7.49005C62.7018 7.13255 62.4418 6.8563 62.106 6.6613C61.781 6.45547 61.3964 6.35255 60.9522 6.35255C60.5189 6.35255 60.1343 6.45547 59.7985 6.6613C59.4735 6.8563 59.2135 7.13255 59.0185 7.49005C58.8343 7.84755 58.7422 8.25922 58.7422 8.72505C58.7422 9.19088 58.8343 9.60255 59.0185 9.96005C59.2135 10.3175 59.4735 10.5992 59.7985 10.805C60.1343 11 60.5189 11.0975 60.9522 11.0975ZM63.0485 12.625V10.5288L63.3572 8.62755L63.0485 6.74255V4.82505H64.836V12.625H63.0485Z" fill="#262626"/>
<path d="M66.8197 12.625V4.82505H68.6072V12.625H66.8197ZM68.6072 8.2863L67.9897 7.97755C67.9897 6.99172 68.2064 6.19547 68.6397 5.5888C69.0839 4.9713 69.7502 4.66255 70.6385 4.66255C71.0285 4.66255 71.3806 4.73297 71.6947 4.8738C72.0089 5.01463 72.3014 5.24213 72.5722 5.5563L71.4022 6.7588C71.2614 6.60713 71.1043 6.4988 70.931 6.4338C70.7577 6.3688 70.5572 6.3363 70.3297 6.3363C69.8314 6.3363 69.4197 6.49338 69.0947 6.80755C68.7697 7.12172 68.6072 7.61463 68.6072 8.2863Z" fill="#262626"/>
<path d="M78.7834 12.625V8.1238C78.7834 7.6038 78.6155 7.17588 78.2797 6.84005C77.9547 6.50422 77.5322 6.3363 77.0122 6.3363C76.6655 6.3363 76.3568 6.41213 76.0859 6.5638C75.8151 6.71547 75.6038 6.92672 75.4522 7.19755C75.3005 7.46838 75.2247 7.77713 75.2247 8.1238L74.5259 7.7338C74.5259 7.13797 74.6559 6.61255 74.9159 6.15755C75.1759 5.69172 75.5334 5.3288 75.9884 5.0688C76.4542 4.79797 76.9743 4.66255 77.5484 4.66255C78.1334 4.66255 78.6534 4.81422 79.1084 5.11755C79.5634 5.41005 79.9209 5.79463 80.1809 6.2713C80.4409 6.73713 80.5709 7.22463 80.5709 7.7338V12.625H78.7834ZM73.4372 12.625V4.82505H75.2247V12.625H73.4372Z" fill="#262626"/>
<path d="M86.0111 12.7875C85.2311 12.7875 84.5269 12.6142 83.8986 12.2675C83.2811 11.91 82.7882 11.4225 82.4199 10.805C82.0624 10.1875 81.8836 9.49422 81.8836 8.72505C81.8836 7.95588 82.0624 7.26797 82.4199 6.6613C82.7774 6.0438 83.2594 5.5563 83.8661 5.1988C84.4836 4.8413 85.1661 4.66255 85.9136 4.66255C86.6394 4.66255 87.2786 4.83047 87.8311 5.1663C88.3944 5.50213 88.8332 5.96255 89.1474 6.54755C89.4724 7.13255 89.6349 7.7988 89.6349 8.5463C89.6349 8.6763 89.624 8.81172 89.6024 8.95255C89.5915 9.08255 89.5699 9.2288 89.5374 9.3913H83.1349V7.9288H88.6111L87.9449 8.5138C87.9232 8.03713 87.8311 7.6363 87.6686 7.3113C87.5061 6.9863 87.2732 6.73713 86.9699 6.5638C86.6774 6.39047 86.3144 6.3038 85.8811 6.3038C85.4261 6.3038 85.0307 6.4013 84.6949 6.5963C84.359 6.7913 84.099 7.06755 83.9149 7.42505C83.7307 7.77172 83.6386 8.1888 83.6386 8.6763C83.6386 9.1638 83.7361 9.59172 83.9311 9.96005C84.1261 10.3284 84.4024 10.6155 84.7599 10.8213C85.1174 11.0163 85.529 11.1138 85.9949 11.1138C86.3957 11.1138 86.764 11.0434 87.0999 10.9025C87.4465 10.7617 87.739 10.5559 87.9774 10.285L89.1149 11.4388C88.7357 11.883 88.2753 12.2188 87.7336 12.4463C87.1919 12.6738 86.6178 12.7875 86.0111 12.7875Z" fill="#262626"/>
<path d="M91.0678 12.625V4.82505H92.8553V12.625H91.0678ZM92.8553 8.2863L92.2378 7.97755C92.2378 6.99172 92.4545 6.19547 92.8878 5.5888C93.3319 4.9713 93.9982 4.66255 94.8865 4.66255C95.2765 4.66255 95.6286 4.73297 95.9428 4.8738C96.257 5.01463 96.5494 5.24213 96.8203 5.5563L95.6503 6.7588C95.5095 6.60713 95.3524 6.4988 95.179 6.4338C95.0057 6.3688 94.8053 6.3363 94.5778 6.3363C94.0794 6.3363 93.6678 6.49338 93.3428 6.80755C93.0178 7.12172 92.8553 7.61463 92.8553 8.2863Z" fill="#262626"/>
<path d="M100.062 12.7875C99.6286 12.7875 99.2115 12.7334 98.8107 12.625C98.4098 12.5059 98.0415 12.3434 97.7057 12.1375C97.3698 11.9209 97.0773 11.6609 96.8282 11.3575L97.9657 10.22C98.2365 10.5342 98.5452 10.7725 98.8919 10.935C99.2494 11.0867 99.6502 11.1625 100.094 11.1625C100.495 11.1625 100.799 11.103 101.004 10.9838C101.21 10.8646 101.313 10.6913 101.313 10.4638C101.313 10.2255 101.216 10.0413 101.021 9.9113C100.826 9.7813 100.571 9.67297 100.257 9.5863C99.9536 9.4888 99.6286 9.3913 99.2819 9.2938C98.9461 9.1963 98.6211 9.0663 98.3069 8.9038C98.0036 8.73047 97.7544 8.49755 97.5594 8.20505C97.3644 7.91255 97.2669 7.53338 97.2669 7.06755C97.2669 6.56922 97.3807 6.1413 97.6082 5.7838C97.8465 5.4263 98.1769 5.15005 98.5994 4.95505C99.0327 4.76005 99.5473 4.66255 100.143 4.66255C100.771 4.66255 101.324 4.7763 101.801 5.0038C102.288 5.22047 102.694 5.55088 103.019 5.99505L101.882 7.13255C101.654 6.85088 101.394 6.63963 101.102 6.4988C100.809 6.35797 100.474 6.28755 100.094 6.28755C99.7369 6.28755 99.4607 6.34172 99.2657 6.45005C99.0707 6.55838 98.9732 6.71547 98.9732 6.9213C98.9732 7.13797 99.0707 7.30588 99.2657 7.42505C99.4607 7.54422 99.7098 7.64713 100.013 7.7338C100.327 7.82047 100.652 7.91797 100.988 8.0263C101.335 8.1238 101.66 8.26463 101.963 8.4488C102.277 8.62213 102.532 8.86047 102.727 9.1638C102.922 9.4563 103.019 9.84088 103.019 10.3175C103.019 11.0759 102.754 11.6771 102.223 12.1213C101.692 12.5655 100.972 12.7875 100.062 12.7875Z" fill="#262626"/>
</g>
</svg>
