<svg width="137" height="17" viewBox="0 0 137 17" fill="none" xmlns="http://www.w3.org/2000/svg">
<g id="Text Button">
<path d="M0.646484 16.4999V1.33324H3.13815V16.4999H0.646484ZM2.35815 16.4999V14.2249H10.2882V16.4999H2.35815Z" fill="#262626"/>
<path d="M12.2556 16.4999V6.0999H14.6389V16.4999H12.2556ZM13.4473 4.19324C13.0428 4.19324 12.7034 4.05601 12.4289 3.78157C12.1689 3.50713 12.0389 3.16768 12.0389 2.76324C12.0389 2.35879 12.1689 2.01935 12.4289 1.7449C12.7034 1.47046 13.0428 1.33324 13.4473 1.33324C13.8661 1.33324 14.2056 1.47046 14.4656 1.7449C14.7256 2.01935 14.8556 2.35879 14.8556 2.76324C14.8556 3.16768 14.7256 3.50713 14.4656 3.78157C14.2056 4.05601 13.8661 4.19324 13.4473 4.19324Z" fill="#262626"/>
<path d="M18.8937 16.4999V1.76657H21.277V16.4999H18.8937ZM16.402 8.26657V6.0999H30.052V8.26657H16.402ZM25.177 16.4999V1.76657H27.5604V16.4999H25.177Z" fill="#262626"/>
<path d="M31.7847 16.4999V0.899902H34.168V16.4999H31.7847Z" fill="#262626"/>
<path d="M41.6522 16.7166C40.6122 16.7166 39.6733 16.4855 38.8355 16.0232C38.0122 15.5466 37.355 14.8966 36.8638 14.0732C36.3872 13.2499 36.1488 12.3255 36.1488 11.2999C36.1488 10.2743 36.3872 9.35713 36.8638 8.54824C37.3405 7.7249 37.9833 7.0749 38.7922 6.59824C39.6155 6.12157 40.5255 5.88324 41.5222 5.88324C42.49 5.88324 43.3422 6.10713 44.0788 6.5549C44.83 7.00268 45.415 7.61657 45.8338 8.39657C46.2672 9.17657 46.4838 10.0649 46.4838 11.0616C46.4838 11.2349 46.4694 11.4155 46.4405 11.6032C46.4261 11.7766 46.3972 11.9716 46.3538 12.1882H37.8172V10.2382H45.1188L44.2305 11.0182C44.2016 10.3827 44.0788 9.84824 43.8622 9.4149C43.6455 8.98157 43.335 8.64935 42.9305 8.41824C42.5405 8.18713 42.0566 8.07157 41.4788 8.07157C40.8722 8.07157 40.345 8.20157 39.8972 8.46157C39.4494 8.72157 39.1027 9.0899 38.8572 9.56657C38.6116 10.0288 38.4888 10.5849 38.4888 11.2349C38.4888 11.8849 38.6188 12.4555 38.8788 12.9466C39.1388 13.4377 39.5072 13.8205 39.9838 14.0949C40.4605 14.3549 41.0094 14.4849 41.6305 14.4849C42.165 14.4849 42.6561 14.391 43.1038 14.2032C43.5661 14.0155 43.9561 13.741 44.2738 13.3799L45.7905 14.9182C45.285 15.5105 44.6711 15.9582 43.9488 16.2616C43.2266 16.5649 42.4611 16.7166 41.6522 16.7166Z" fill="#262626"/>
<path d="M53.057 16.4999V1.33324H55.5486V16.4999H53.057ZM54.7686 16.4999V14.2249H62.6986V16.4999H54.7686Z" fill="#262626"/>
<path d="M69.1164 16.7166C68.0764 16.7166 67.1375 16.4855 66.2997 16.0232C65.4764 15.5466 64.8192 14.8966 64.328 14.0732C63.8514 13.2499 63.613 12.3255 63.613 11.2999C63.613 10.2743 63.8514 9.35713 64.328 8.54824C64.8047 7.7249 65.4475 7.0749 66.2564 6.59824C67.0797 6.12157 67.9897 5.88324 68.9864 5.88324C69.9542 5.88324 70.8064 6.10713 71.543 6.5549C72.2942 7.00268 72.8792 7.61657 73.298 8.39657C73.7314 9.17657 73.948 10.0649 73.948 11.0616C73.948 11.2349 73.9336 11.4155 73.9047 11.6032C73.8903 11.7766 73.8614 11.9716 73.818 12.1882H65.2814V10.2382H72.583L71.6947 11.0182C71.6658 10.3827 71.543 9.84824 71.3264 9.4149C71.1097 8.98157 70.7991 8.64935 70.3947 8.41824C70.0047 8.18713 69.5208 8.07157 68.943 8.07157C68.3364 8.07157 67.8092 8.20157 67.3614 8.46157C66.9136 8.72157 66.5669 9.0899 66.3214 9.56657C66.0758 10.0288 65.953 10.5849 65.953 11.2349C65.953 11.8849 66.083 12.4555 66.343 12.9466C66.603 13.4377 66.9714 13.8205 67.448 14.0949C67.9247 14.3549 68.4736 14.4849 69.0947 14.4849C69.6292 14.4849 70.1203 14.391 70.568 14.2032C71.0303 14.0155 71.4203 13.741 71.738 13.3799L73.2547 14.9182C72.7491 15.5105 72.1353 15.9582 71.413 16.2616C70.6908 16.5649 69.9253 16.7166 69.1164 16.7166Z" fill="#262626"/>
<path d="M80.2136 16.7166C79.2747 16.7166 78.4225 16.4782 77.6569 16.0016C76.9058 15.5249 76.3064 14.8821 75.8586 14.0732C75.4253 13.2499 75.2086 12.3327 75.2086 11.3216C75.2086 10.296 75.4253 9.37879 75.8586 8.5699C76.3064 7.74657 76.9058 7.09657 77.6569 6.6199C78.4225 6.12879 79.2747 5.88324 80.2136 5.88324C81.008 5.88324 81.7086 6.05657 82.3153 6.40324C82.9364 6.73546 83.4275 7.19768 83.7886 7.7899C84.1497 8.38213 84.3303 9.05379 84.3303 9.8049V12.7949C84.3303 13.546 84.1497 14.2177 83.7886 14.8099C83.4419 15.4021 82.958 15.8716 82.3369 16.2182C81.7158 16.5505 81.008 16.7166 80.2136 16.7166ZM80.6036 14.4632C81.4847 14.4632 82.1925 14.1671 82.7269 13.5749C83.2758 12.9827 83.5503 12.2243 83.5503 11.2999C83.5503 10.6788 83.4275 10.1299 83.1819 9.65324C82.9364 9.17657 82.5897 8.80824 82.1419 8.54824C81.7086 8.27379 81.1958 8.13657 80.6036 8.13657C80.0258 8.13657 79.513 8.27379 79.0653 8.54824C78.6319 8.80824 78.2853 9.17657 78.0253 9.65324C77.7797 10.1299 77.6569 10.6788 77.6569 11.2999C77.6569 11.921 77.7797 12.4699 78.0253 12.9466C78.2853 13.4232 78.6319 13.7988 79.0653 14.0732C79.513 14.3332 80.0258 14.4632 80.6036 14.4632ZM83.3986 16.4999V13.7049L83.8103 11.1699L83.3986 8.65657V6.0999H85.7819V16.4999H83.3986Z" fill="#262626"/>
<path d="M88.427 16.4999V6.0999H90.8103V16.4999H88.427ZM90.8103 10.7149L89.987 10.3032C89.987 8.98879 90.2758 7.92712 90.8536 7.11824C91.4458 6.2949 92.3342 5.88324 93.5186 5.88324C94.0386 5.88324 94.5081 5.97713 94.927 6.1649C95.3458 6.35268 95.7358 6.65601 96.097 7.0749L94.537 8.67824C94.3492 8.47601 94.1397 8.33157 93.9086 8.2449C93.6775 8.15824 93.4103 8.1149 93.107 8.1149C92.4425 8.1149 91.8936 8.32435 91.4603 8.74324C91.027 9.16212 90.8103 9.81935 90.8103 10.7149Z" fill="#262626"/>
<path d="M104.379 16.4999V10.4982C104.379 9.8049 104.155 9.23435 103.707 8.78657C103.274 8.33879 102.71 8.1149 102.017 8.1149C101.555 8.1149 101.143 8.21601 100.782 8.41824C100.421 8.62046 100.139 8.90213 99.9369 9.26324C99.7346 9.62435 99.6335 10.036 99.6335 10.4982L98.7019 9.97824C98.7019 9.18379 98.8752 8.48324 99.2219 7.87657C99.5685 7.25546 100.045 6.77157 100.652 6.4249C101.273 6.06379 101.966 5.88324 102.732 5.88324C103.512 5.88324 104.205 6.08546 104.812 6.4899C105.419 6.8799 105.895 7.39268 106.242 8.02824C106.589 8.64935 106.762 9.29935 106.762 9.97824V16.4999H104.379ZM97.2502 16.4999V6.0999H99.6335V16.4999H97.2502Z" fill="#262626"/>
<path d="M114.015 16.7166C112.975 16.7166 112.037 16.4855 111.199 16.0232C110.375 15.5466 109.718 14.8966 109.227 14.0732C108.75 13.2499 108.512 12.3255 108.512 11.2999C108.512 10.2743 108.75 9.35713 109.227 8.54824C109.704 7.7249 110.347 7.0749 111.155 6.59824C111.979 6.12157 112.889 5.88324 113.885 5.88324C114.853 5.88324 115.705 6.10713 116.442 6.5549C117.193 7.00268 117.778 7.61657 118.197 8.39657C118.63 9.17657 118.847 10.0649 118.847 11.0616C118.847 11.2349 118.833 11.4155 118.804 11.6032C118.789 11.7766 118.76 11.9716 118.717 12.1882H110.18V10.2382H117.482L116.594 11.0182C116.565 10.3827 116.442 9.84824 116.225 9.4149C116.009 8.98157 115.698 8.64935 115.294 8.41824C114.904 8.18713 114.42 8.07157 113.842 8.07157C113.235 8.07157 112.708 8.20157 112.26 8.46157C111.813 8.72157 111.466 9.0899 111.22 9.56657C110.975 10.0288 110.852 10.5849 110.852 11.2349C110.852 11.8849 110.982 12.4555 111.242 12.9466C111.502 13.4377 111.87 13.8205 112.347 14.0949C112.824 14.3549 113.373 14.4849 113.994 14.4849C114.528 14.4849 115.019 14.391 115.467 14.2032C115.929 14.0155 116.319 13.741 116.637 13.3799L118.154 14.9182C117.648 15.5105 117.034 15.9582 116.312 16.2616C115.59 16.5649 114.824 16.7166 114.015 16.7166Z" fill="#262626"/>
<path d="M120.758 16.4999V6.0999H123.141V16.4999H120.758ZM123.141 10.7149L122.318 10.3032C122.318 8.98879 122.607 7.92712 123.184 7.11824C123.777 6.2949 124.665 5.88324 125.849 5.88324C126.369 5.88324 126.839 5.97713 127.258 6.1649C127.677 6.35268 128.067 6.65601 128.428 7.0749L126.868 8.67824C126.68 8.47601 126.47 8.33157 126.239 8.2449C126.008 8.15824 125.741 8.1149 125.438 8.1149C124.773 8.1149 124.224 8.32435 123.791 8.74324C123.358 9.16212 123.141 9.81935 123.141 10.7149Z" fill="#262626"/>
<path d="M132.75 16.7166C132.172 16.7166 131.616 16.6443 131.082 16.4999C130.547 16.341 130.056 16.1243 129.608 15.8499C129.16 15.561 128.77 15.2143 128.438 14.8099L129.955 13.2932C130.316 13.7121 130.728 14.0299 131.19 14.2466C131.667 14.4488 132.201 14.5499 132.793 14.5499C133.328 14.5499 133.732 14.4705 134.007 14.3116C134.281 14.1527 134.418 13.9216 134.418 13.6182C134.418 13.3005 134.288 13.0549 134.028 12.8816C133.768 12.7082 133.429 12.5638 133.01 12.4482C132.605 12.3182 132.172 12.1882 131.71 12.0582C131.262 11.9282 130.829 11.7549 130.41 11.5382C130.005 11.3071 129.673 10.9966 129.413 10.6066C129.153 10.2166 129.023 9.71101 129.023 9.0899C129.023 8.42546 129.175 7.8549 129.478 7.37824C129.796 6.90157 130.237 6.53324 130.8 6.27324C131.378 6.01324 132.064 5.88324 132.858 5.88324C133.696 5.88324 134.433 6.0349 135.068 6.33824C135.718 6.62712 136.26 7.06768 136.693 7.6599L135.177 9.17657C134.873 8.80101 134.527 8.51935 134.137 8.33157C133.747 8.14379 133.299 8.0499 132.793 8.0499C132.317 8.0499 131.948 8.12212 131.688 8.26657C131.428 8.41101 131.298 8.62046 131.298 8.8949C131.298 9.18379 131.428 9.40768 131.688 9.56657C131.948 9.72546 132.28 9.86268 132.685 9.97824C133.104 10.0938 133.537 10.2238 133.985 10.3682C134.447 10.4982 134.88 10.686 135.285 10.9316C135.704 11.1627 136.043 11.4805 136.303 11.8849C136.563 12.2749 136.693 12.7877 136.693 13.4232C136.693 14.4343 136.339 15.236 135.632 15.8282C134.924 16.4205 133.963 16.7166 132.75 16.7166Z" fill="#262626"/>
</g>
</svg>
